<svg xmlns="http://www.w3.org/2000/svg" data-name="Layer 1" width="136.6744" height="95.5268" viewBox="0 0 136.6744 95.5268"><defs><style>.cls-3,.cls-4{fill:#fff;}.cls-3{fill-rule:evenodd;}</style></defs><title>award 1</title><path class="cls-3" d="M93.4636,95.0076a8.81,8.81,0,0,0-4.79-5.28,10.3566,10.3566,0,0,0-5.8369-.9261q.56.205,1.1322.4207c4.4232,1.6723,5.7225,3.3211,7.55,4.8362a29.2794,29.2794,0,0,0-7.6721-4.369c-.4794-.1912-1.0018-.5839-1.478-.7619.0363,1.8247,1.8463,4.0572,4.4542,5.2279A11.0293,11.0293,0,0,0,93.4636,95.0076Z"></path><path class="cls-3" d="M87.6432,79.3063a10.1612,10.1612,0,0,1-2.9312,6.7726,8.4372,8.4372,0,0,1-4.8239,2.5141q.4365-.3615.8811-.7391c3.4346-2.9159,4.0905-4.865,5.3221-6.9283A28.0149,28.0149,0,0,1,80.5572,87.4q-.5557.49-1.112.96c-.3668-1.8277.6972-4.5082,2.6632-6.4035C83.7224,80.4,86.0861,79.2322,87.6432,79.3063Z"></path><path class="cls-3" d="M106.6776,89.6511a8.5524,8.5524,0,0,0-6-3.7177,10.7975,10.7975,0,0,0-5.9521.709q.6.0423,1.214.0918c4.75.3859,6.4307,1.6,8.5962,2.5441a29.4155,29.4155,0,0,0-8.6011-2.0664c-.5172-.0513-1.1264-.2826-1.6373-.3221.4859,1.7259,2.8114,3.3565,5.6576,3.76A11.5235,11.5235,0,0,0,106.6776,89.6511Z"></path><path class="cls-3" d="M97.0963,76.3a9.9942,9.9942,0,0,1-1.2034,7.2409,8.8705,8.8705,0,0,1-4.11,3.7055q.3389-.4628.6816-.9431c2.6485-3.7094,2.8109-5.7421,3.51-8.04A28.506,28.506,0,0,1,92.1447,85.93q-.4239.6178-.8536,1.2158c-.8106-1.6387-.4286-4.4784,1.0316-6.8168C93.5215,78.4088,95.5511,76.654,97.0963,76.3Z"></path><path class="cls-3" d="M118.3135,80.9563a8.5473,8.5473,0,0,0-6.8008-1.9021,11.4171,11.4171,0,0,0-5.6617,2.2957q.5989-.1232,1.2131-.2433c4.753-.9267,6.7008-.2292,9.0571.0785a30.459,30.459,0,0,0-8.944.3772c-.52.0921-1.1743.038-1.685.14.9023,1.5094,3.585,2.4271,6.4753,2.0355A12.19,12.19,0,0,0,118.3135,80.9563Z"></path><path class="cls-3" d="M105.6243,70.8662a9.6046,9.6046,0,0,1,.6065,7.2158,9.1541,9.1541,0,0,1-3.116,4.6444q.2182-.5324.4357-1.0827c1.682-4.25,1.34-6.2279,1.4577-8.6044a28.2056,28.2056,0,0,1-1.8636,8.3356q-.2634.7031-.5371,1.389c-1.1992-1.338-1.5252-4.1434-.67-6.7655C102.6391,73.8455,104.1964,71.6235,105.6243,70.8662Z"></path><path class="cls-3" d="M127.5784,69.5158a8.7958,8.7958,0,0,0-7.138.043,12.0537,12.0537,0,0,0-4.9854,3.7259q.5569-.28,1.13-.5618c4.4321-2.1763,6.5142-2.0433,8.9006-2.3924a32.1458,32.1458,0,0,0-8.6773,2.795c-.4869.2293-1.1421.3561-1.6179.5917,1.2572,1.19,4.1143,1.3324,6.8518.1726A12.8526,12.8526,0,0,0,127.5784,69.5158Z"></path><path class="cls-3" d="M112.6462,63.3738a9.1054,9.1054,0,0,1,2.375,6.6989,9.2072,9.2072,0,0,1-1.91,5.2668q.0826-.566.16-1.1486c.6008-4.5011-.2228-6.2893-.6934-8.5821a27.2046,27.2046,0,0,1,.2291,8.437q-.0848.74-.184,1.4676c-1.506-.9462-2.5178-3.526-2.3263-6.2533A9.7719,9.7719,0,0,1,112.6462,63.3738Z"></path><path class="cls-3" d="M133.841,56.1093a9.2388,9.2388,0,0,0-6.9889,1.9852,12.53,12.53,0,0,0-3.9694,4.9023q.4768-.4184.9689-.8422c3.8091-3.2774,5.8837-3.718,8.1376-4.7a34.0454,34.0454,0,0,0-7.8193,5.0224c-.421.3507-1.0321.65-1.44,1.0036,1.5263.79,4.3631.1467,6.7614-1.7023A13.33,13.33,0,0,0,133.841,56.1093Z"></path><path class="cls-3" d="M117.6832,54.334a8.6307,8.6307,0,0,1,3.9816,5.7255,9.0127,9.0127,0,0,1-.5732,5.53q-.0587-.5608-.1264-1.1362c-.5213-4.4454-1.77-5.9221-2.7973-7.9749a25.7875,25.7875,0,0,1,2.3062,7.9633q.1.7276.1816,1.4461c-1.71-.49-3.3389-2.6682-3.8239-5.3147A9.6,9.6,0,0,1,117.6832,54.334Z"></path><path class="cls-3" d="M136.6744,41.65a9.7646,9.7646,0,0,0-6.3634,3.7921,12.714,12.714,0,0,0-2.6829,5.7447q.3644-.5279.7424-1.0651a24.8015,24.8015,0,0,1,6.82-6.6877,35.6461,35.6461,0,0,0-6.4284,6.9074c-.3263.4482-.8517.8992-1.165,1.347,1.6916.3354,4.3147-1.0488,6.21-3.4609A13.4826,13.4826,0,0,0,136.6744,41.65Z"></path><path class="cls-3" d="M120.3923,44.3628a8.3056,8.3056,0,0,1,5.3169,4.3619,8.6281,8.6281,0,0,1,.8023,5.4169q-.196-.5176-.4043-1.0466c-1.6079-4.0866-3.1968-5.1512-4.71-6.8242a24.3458,24.3458,0,0,1,4.226,6.947q.2771.665.5349,1.3262c-1.7978,0-3.9323-1.6287-5.0609-4.0142A9.2152,9.2152,0,0,1,120.3923,44.3628Z"></path><path class="cls-3" d="M135.8855,27.1243a10.232,10.232,0,0,0-5.3043,5.3406,12.547,12.547,0,0,0-1.2134,6.1955q.2271-.6015.4651-1.2153a25.5224,25.5224,0,0,1,5.0378-8.2195,36.4966,36.4966,0,0,0-4.5995,8.3218c-.2093.5154-.6133,1.0874-.81,1.5987,1.7415-.1417,3.9721-2.1729,5.2358-4.9839A13.265,13.265,0,0,0,135.8855,27.1243Z"></path><path class="cls-3" d="M120.5886,34.14a8.2559,8.2559,0,0,1,8.413,7.6354q-.32-.4389-.6546-.8854c-2.585-3.4494-4.4057-4.0294-6.3027-5.2085a23.261,23.261,0,0,1,5.8579,5.4574q.4358.557.8518,1.1159c-1.763.49-4.2579-.4783-5.9532-2.44A8.7281,8.7281,0,0,1,120.5886,34.14Z"></path><path class="cls-3" d="M131.5282,13.5212a10.5086,10.5086,0,0,0-3.8838,6.5251,12.0811,12.0811,0,0,0,.3386,6.224q.0744-.634.1563-1.2828c.637-5.0209,1.89-6.8587,2.9121-9.1911a36.3439,36.3439,0,0,0-2.4571,9.1691c-.0782.5472-.3332,1.2014-.4,1.7414,1.6728-.6091,3.3589-3.1491,3.9046-6.1672C132.5433,18.083,132.3274,15.067,131.5282,13.5212Z"></path><path class="cls-3" d="M118.259,24.3611a8.3622,8.3622,0,0,1,6.8342.8562,7.7419,7.7419,0,0,1,3.2992,4.1155q-.4218-.3306-.86-.664c-3.3859-2.5772-5.3143-2.6329-7.4655-3.238a22.8074,22.8074,0,0,1,7.0907,3.5958q.5648.4113,1.1105.83c-1.608.9458-4.2933.7048-6.44-.6995A8.27,8.27,0,0,1,118.259,24.3611Z"></path><path class="cls-3" d="M122.7176,2.9062a10.4286,10.4286,0,0,0-1.4105,7.4343,11.1642,11.1642,0,0,0,2.5,5.5294q-.151-.6053-.3-1.227c-1.1508-4.8121-.6022-6.9674-.4462-9.4834a34.533,34.533,0,0,0,.8713,9.2875c.117.5279.1035,1.2214.2289,1.7382,1.3776-1.2,2.0926-4.1612,1.5557-7.1167C125.2789,6.6628,124.0186,4.0034,122.7176,2.9062Z"></path><path class="cls-3" d="M113.5621,15.6939a8.73,8.73,0,0,1,6.9127-1.0472,7.4756,7.4756,0,0,1,4.2507,3.0163q-.4952-.1995-1.0074-.3973c-3.956-1.5294-5.8608-1.0571-8.1194-1.0466a23.0839,23.0839,0,0,1,7.84,1.489q.6553.2374,1.2936.4866c-1.3435,1.3378-4.036,1.84-6.4872,1.0887A7.9622,7.9622,0,0,1,113.5621,15.6939Z"></path><path class="cls-4" d="M123.5085,14.3306l.5492,1.476c7.4525,13.319,6.6326,32.5154-3.17,48.61C108.6713,84.4744,86.3783,93.3537,69.0939,85.9231l-1.5536.5375c17.5237,7.5253,40.5851-.07,53.795-21.7593C131.6277,47.8024,131.9342,27.89,123.5085,14.3306Z"></path><path class="cls-4" d="M81.6839,52.1685a.33.33,0,0,0-.4283-.0688,18.6141,18.6141,0,1,1,.0558-31.67.5376.5376,0,0,0,.7-.1094L92.674,7.46a.478.478,0,0,0-.0873-.6924,36.2475,36.2475,0,1,0-.2626,59.1466.5428.5428,0,0,0,.1026-.7891ZM86.9548,5.69c.8585.428,1.709.898,2.5282,1.3971L87.848,9.1188c-.7619-.4643-1.1562-.9016-1.9546-1.3Zm-6.62-2.4767c.9281.24,1.8578.5241,2.7631.8432L82.3076,6.3c-.8417-.2967-1.7061-.56-2.5691-.7839ZM78.8767,14.2569A29.052,29.052,0,0,1,82.1,15.4138L80.658,17.551a20.7256,20.7256,0,0,0-2.5343-1.0374ZM73.3491,2.1613c.9587.0441,1.9265.13,2.8759.2539L75.9161,4.774c-.8836-.1156-1.784-.1952-2.6763-.2362Zm1.2158,11.1044-.3083,2.3591a21.1207,21.1207,0,0,0-2.7227-.1766L71.52,13.0692A23.57,23.57,0,0,1,74.5649,13.2657ZM69.1656,2.2214l.1779,2.3725c-.8907.0668-1.7884.1723-2.6683.3136l-.3772-2.349C67.2437,2.4067,68.2084,2.2933,69.1656,2.2214ZM67.119,13.4894l.4507,2.3359a20.7634,20.7634,0,0,0-2.6483.6956l-.7555-2.2558A23.1075,23.1075,0,0,1,67.119,13.4894ZM62.2127,3.4767l.6639,2.2845c-.8555.2487-1.7118.5376-2.5449.8589L59.4757,4.4C60.3717,4.0549,61.2925,3.7441,62.2127,3.4767Zm-2.0874,12.59,1.1726,2.07a20.9193,20.9193,0,0,0-2.29,1.5046l-1.4342-1.8983A23.2934,23.2934,0,0,1,60.1253,16.0671Zm-4.4575-9.92L56.7909,8.244c-.7869.4213-1.5652.8816-2.3134,1.368L53.1808,7.6172C53.9851,7.0945,54.8219,6.6,55.6677,6.1467ZM54.3143,20.7319l1.7671,1.593a21.002,21.002,0,0,0-1.6971,2.15l-1.96-1.3483A23.3651,23.3651,0,0,1,54.3143,20.7319Zm-3.56,16.4314-2.3769.1033c-.0146-.3362-.022-.6791-.022-1.019,0-.6761.0294-1.3594.0877-2.0306l2.37.2061c-.0523.6027-.0789,1.2165-.0787,1.8242C50.7346,36.5533,50.7413,36.8613,50.7544,37.1633Zm.5475,3.9305a20.7213,20.7213,0,0,0,.8115,2.617l-2.2206.8539a23.0913,23.0913,0,0,1-.905-2.9188Zm.2307-10.5728-2.2875-.6533a23.0639,23.0639,0,0,1,1.0318-2.8741l2.1809.9507A20.7086,20.7086,0,0,0,51.5326,30.5211ZM49.8165,10.11l1.53,1.8215c-.6829.5737-1.35,1.1841-1.9834,1.8141l-1.678-1.6865C48.3656,11.3819,49.0827,10.7261,49.8165,10.11ZM41.1383,21.1613l2.1334,1.0532c-.3951.8-.76,1.6265-1.0851,2.4559l-2.2151-.8681C40.3209,22.91,40.7135,22.0218,41.1383,21.1613ZM38.6874,27.788l2.3053.5882c-.22.8628-.406,1.7472-.5525,2.6285l-2.3468-.39C38.2508,29.667,38.4507,28.716,38.6874,27.788Zm-1.057,8.46c0-.4879.0105-.9824.0312-1.47l2.3769.1009c-.0193.4539-.029.9144-.029,1.3689,0,.438.0091.8819.0271,1.32l-2.3772.0973C37.64,37.1946,37.63,36.7179,37.63,36.2477Zm.4541,5.5805,2.3477-.3862c.1449.8809.3294,1.7656.5483,2.6292l-2.3061.5847C38.439,43.7269,38.2406,42.7756,38.0846,41.8282Zm1.8684,6.8176,2.2165-.8645c.3239.83.6883,1.658,1.0827,2.46l-2.1347,1.05C40.6932,50.429,40.3015,49.5391,39.953,48.6458Zm4.9245,8.63c-.5918-.7555-1.1584-1.5452-1.6839-2.347l1.99-1.3041c.489.7462,1.0161,1.4809,1.5669,2.1838Zm.3285-38.4386L43.2178,17.53c.5262-.8006,1.0935-1.5892,1.6863-2.344l1.871,1.4694C46.2235,17.3582,45.6956,18.0919,45.206,18.8368Zm4.5777,43.5216c-.7339-.6183-1.45-1.2748-2.1283-1.9516l1.68-1.6843c.6314.63,1.2979,1.2409,1.981,1.8163ZM53.886,47.2608a20.9238,20.9238,0,0,0,1.6027,2.2227l-1.8343,1.5151a23.3444,23.3444,0,0,1-1.7853-2.4761Zm1.7407,19.0659c-.8445-.4537-1.68-.9493-2.4832-1.4729l1.2991-1.9931c.7473.4872,1.5247.9482,2.31,1.37Zm1.154-12.2015,1.5154-1.8341a20.912,20.912,0,0,0,2.2211,1.602L59.2555,55.91A23.309,23.309,0,0,1,56.7808,54.1253Zm5.3827,14.8789c-.921-.2691-1.8413-.5814-2.7357-.928l.86-2.2184c.8315.3223,1.6873.6125,2.5435.8629Zm1.0488-11.117.8542-2.2206a20.7251,20.7251,0,0,0,2.6151.8118l-.5532,2.3138A23.1283,23.1283,0,0,1,63.2123,57.8872ZM69.1145,70.27c-.9575-.0734-1.9222-.1882-2.8671-.3415l.381-2.3485c.8792.1427,1.7767.25,2.6676.3177ZM70.508,59.4038l.1036-2.3769a21.2905,21.2905,0,0,0,2.7418-.0582l.2055,2.37c-.6686.0581-1.35.0875-2.0249.0875C71.1914,59.4261,70.8463,59.4185,70.508,59.4038Zm2.7914,10.9325L73.1933,67.96c.8937-.04,1.7948-.1181,2.6784-.2325l.3053,2.3594C75.2276,70.2095,74.2593,70.2935,73.2994,70.3363ZM77.257,56.25a20.6912,20.6912,0,0,0,2.5777-.9251l1.3474,2.1809a29.1207,29.1207,0,0,1-3.2718,1.032ZM80.29,69.2938,79.6966,66.99c.8631-.2224,1.7281-.485,2.5711-.7806l.7875,2.2449C82.1487,68.7721,81.2184,69.0546,80.29,69.2938Zm5.5659-4.5991c.7983-.3966,1.1932-.8328,1.9568-1.2967l1.6322,2.0333c-.8208.4987-1.6723.9676-2.5307,1.394Z"></path><path class="cls-4" d="M70.579,27.83h3.4763v.9025H71.6781v1.6623h2.2163v.9025H71.6781V33.853H70.579Z"></path><path class="cls-4" d="M76.2266,27.83V33.853H75.1271V27.83Z"></path><path class="cls-4" d="M77.4863,27.83h1.0991v5.1028H81.061v.92H77.4863Z"></path><path class="cls-4" d="M86.9764,31.3955c-.0358-.7776-.08-1.7158-.0713-2.5291h-.0269c-.1966.7328-.4467,1.546-.7151,2.3056l-.8758,2.61h-.8489l-.804-2.5736c-.2326-.7686-.4472-1.5908-.6079-2.3415h-.0178c-.027.7864-.0628,1.7427-.1073,2.5649l-.1342,2.4217H81.74L82.142,27.83h1.4473l.7867,2.4217c.2145.7061.4022,1.421.5542,2.0914h.0267c.1607-.6525.3663-1.3942.5987-2.1l.8311-2.4129h1.43l.3483,6.0232H87.0927Z"></path><path class="cls-4" d="M63.1806,38.5528H66.657v.9025H64.28v1.6622h2.2161V42.02H64.28v2.5558H63.1806Z"></path><path class="cls-4" d="M71.0978,41.9041h-2.27v1.7694h2.5382v.9026H67.7288V38.5528h3.5031v.9025h-2.404V41.01h2.27Z"></path><path class="cls-4" d="M72.304,43.3786a3.0454,3.0454,0,0,0,1.4567.3842c.706,0,1.0992-.3307,1.0992-.8222,0-.4557-.3037-.7239-1.0724-1.0009-.992-.3574-1.6263-.8848-1.6263-1.7516,0-.983.8222-1.7338,2.1269-1.7338a3.18,3.18,0,0,1,1.4477.3039l-.2682.8847A2.5492,2.5492,0,0,0,74.27,39.357c-.6973,0-1.0008.3755-1.0008.7239,0,.4648.3483.6792,1.1527.9919,1.0455.3933,1.555.9207,1.555,1.7875,0,.9651-.733,1.8053-2.2879,1.8053a3.5809,3.5809,0,0,1-1.6267-.3755Z"></path><path class="cls-4" d="M78.1215,39.4733H76.4054v-.92h4.5489v.92H79.22v5.1028h-1.099Z"></path><path class="cls-4" d="M82.759,38.5528v6.0233H81.66V38.5528Z"></path><path class="cls-4" d="M85.395,44.5761l-1.9482-6.0233h1.1977l.8221,2.7345c.2321.76.429,1.4657.59,2.1985h.0177c.1607-.7149.3752-1.4478.6166-2.1806l.8757-2.7524h1.1708l-2.0823,6.0233Z"></path><path class="cls-4" d="M90.1044,42.8691l-.5183,1.7069H88.4509l1.9305-6.0233h1.4027l1.9574,6.0233h-1.18l-.5449-1.7069Zm1.7247-.8311-.4737-1.4835c-.1162-.3664-.2145-.7775-.3038-1.1259h-.018c-.0893.3485-.1786.7686-.2859,1.1259l-.4646,1.4835Z"></path><path class="cls-4" d="M94.5808,38.5528H95.68v5.1027h2.4753v.9205H94.5808Z"></path><path class="cls-3" d="M43.2108,95.3115a8.81,8.81,0,0,1,4.79-5.28,10.3566,10.3566,0,0,1,5.8369-.9261q-.56.205-1.1322.4207c-4.4232,1.6723-5.7225,3.3211-7.55,4.8362a29.2794,29.2794,0,0,1,7.6721-4.369c.4794-.1912,1.0018-.5839,1.478-.7619-.0363,1.8247-1.8463,4.0572-4.4542,5.2279A11.0293,11.0293,0,0,1,43.2108,95.3115Z"></path><path class="cls-3" d="M49.0312,79.61a10.1612,10.1612,0,0,0,2.9312,6.7726,8.4372,8.4372,0,0,0,4.8239,2.5141q-.4365-.3615-.8811-.7391c-3.4346-2.9159-4.0905-4.865-5.3221-6.9283a28.0149,28.0149,0,0,0,5.534,6.4742q.5557.49,1.112.96c.3668-1.8277-.6972-4.5082-2.6632-6.4035C52.952,80.7038,50.5883,79.536,49.0312,79.61Z"></path><path class="cls-3" d="M29.9968,89.9549a8.5524,8.5524,0,0,1,6-3.7177,10.7975,10.7975,0,0,1,5.9521.709q-.6.0423-1.214.0918c-4.75.3859-6.4307,1.6-8.5962,2.5441A29.4155,29.4155,0,0,1,40.74,87.5157c.5172-.0513,1.1264-.2826,1.6373-.3221-.4859,1.7259-2.8114,3.3565-5.6576,3.76A11.5235,11.5235,0,0,1,29.9968,89.9549Z"></path><path class="cls-3" d="M39.5781,76.6043a9.9942,9.9942,0,0,0,1.2034,7.2409,8.8705,8.8705,0,0,0,4.11,3.7055q-.3389-.4628-.6816-.9431c-2.6485-3.7094-2.8109-5.7421-3.51-8.04A28.506,28.506,0,0,0,44.53,86.2335q.4239.6178.8536,1.2158c.8106-1.6387.4286-4.4784-1.0316-6.8168C43.1529,78.7126,41.1232,76.9579,39.5781,76.6043Z"></path><path class="cls-3" d="M18.3609,81.26a8.5473,8.5473,0,0,1,6.8008-1.9021,11.4171,11.4171,0,0,1,5.6617,2.2957q-.5989-.1232-1.2131-.2433c-4.753-.9267-6.7008-.2292-9.0571.0785a30.459,30.459,0,0,1,8.944.3772c.52.0921,1.1743.038,1.685.14-.9023,1.5094-3.585,2.4271-6.4753,2.0355A12.19,12.19,0,0,1,18.3609,81.26Z"></path><path class="cls-3" d="M31.05,71.17a9.6046,9.6046,0,0,0-.6065,7.2158A9.1541,9.1541,0,0,0,33.56,83.03q-.2182-.5324-.4357-1.0827c-1.682-4.25-1.34-6.2279-1.4577-8.6044A28.2056,28.2056,0,0,0,33.53,81.6787q.2634.7031.5371,1.389c1.1992-1.338,1.5252-4.1434.67-6.7655C34.0353,74.1493,32.4779,71.9273,31.05,71.17Z"></path><path class="cls-3" d="M9.096,69.82a8.7958,8.7958,0,0,1,7.138.043,12.0537,12.0537,0,0,1,4.9854,3.7259q-.5569-.28-1.13-.5618c-4.4321-2.1763-6.5142-2.0433-8.9006-2.3924a32.1458,32.1458,0,0,1,8.6773,2.795c.4869.2293,1.1421.3561,1.6179.5917-1.2572,1.19-4.1143,1.3324-6.8518.1726A12.8526,12.8526,0,0,1,9.096,69.82Z"></path><path class="cls-3" d="M24.0282,63.6777a9.1054,9.1054,0,0,0-2.375,6.6989,9.2072,9.2072,0,0,0,1.91,5.2668q-.0826-.566-.16-1.1486c-.6008-4.5011.2228-6.2893.6934-8.5821a27.2046,27.2046,0,0,0-.2291,8.437q.0848.74.184,1.4676c1.506-.9462,2.5178-3.526,2.3263-6.2533A9.7719,9.7719,0,0,0,24.0282,63.6777Z"></path><path class="cls-3" d="M2.8334,56.4132a9.2388,9.2388,0,0,1,6.9889,1.9852,12.53,12.53,0,0,1,3.9694,4.9023q-.4768-.4184-.9689-.8422c-3.8091-3.2774-5.8837-3.718-8.1376-4.7a34.0454,34.0454,0,0,1,7.8193,5.0224c.421.3507,1.0321.65,1.44,1.0036-1.5263.79-4.3631.1467-6.7614-1.7023A13.33,13.33,0,0,1,2.8334,56.4132Z"></path><path class="cls-3" d="M18.9912,54.6379A8.6307,8.6307,0,0,0,15.01,60.3634a9.0127,9.0127,0,0,0,.5732,5.53q.0587-.5608.1264-1.1362c.5213-4.4454,1.77-5.9221,2.7973-7.9749A25.7875,25.7875,0,0,0,16.2,64.7458q-.1.7276-.1816,1.4461c1.71-.49,3.3389-2.6682,3.8239-5.3147A9.6,9.6,0,0,0,18.9912,54.6379Z"></path><path class="cls-3" d="M0,41.9542a9.7646,9.7646,0,0,1,6.3634,3.7921A12.714,12.714,0,0,1,9.0463,51.491q-.3644-.5279-.7424-1.0651a24.8015,24.8015,0,0,0-6.82-6.6877,35.6461,35.6461,0,0,1,6.4284,6.9074c.3263.4482.8517.8992,1.165,1.347-1.6916.3354-4.3147-1.0488-6.21-3.4609A13.4826,13.4826,0,0,1,0,41.9542Z"></path><path class="cls-3" d="M16.2821,44.6666a8.3056,8.3056,0,0,0-5.3169,4.3619,8.6281,8.6281,0,0,0-.8023,5.4169q.196-.5176.4043-1.0466c1.6079-4.0866,3.1968-5.1512,4.71-6.8242a24.3458,24.3458,0,0,0-4.226,6.947q-.2771.665-.5349,1.3262c1.7978,0,3.9323-1.6287,5.0609-4.0142A9.2152,9.2152,0,0,0,16.2821,44.6666Z"></path><path class="cls-3" d="M.7889,27.4282a10.232,10.232,0,0,1,5.3043,5.3406,12.547,12.547,0,0,1,1.2134,6.1955q-.2271-.6015-.4651-1.2153a25.5224,25.5224,0,0,0-5.0378-8.2195,36.4966,36.4966,0,0,1,4.5995,8.3218c.2093.5154.6133,1.0874.81,1.5987-1.7415-.1417-3.9721-2.1729-5.2358-4.9839A13.265,13.265,0,0,1,.7889,27.4282Z"></path><path class="cls-3" d="M16.0858,34.4434a8.2559,8.2559,0,0,0-8.413,7.6354q.32-.4389.6546-.8854c2.585-3.4494,4.4057-4.0294,6.3027-5.2085a23.261,23.261,0,0,0-5.8579,5.4574q-.4358.557-.8518,1.1159c1.763.49,4.2579-.4783,5.9532-2.44A8.7281,8.7281,0,0,0,16.0858,34.4434Z"></path><path class="cls-3" d="M5.1462,13.825A10.5086,10.5086,0,0,1,9.03,20.35a12.0811,12.0811,0,0,1-.3386,6.224q-.0744-.634-.1563-1.2828C7.8981,20.27,6.6451,18.4326,5.623,16.1A36.3439,36.3439,0,0,1,8.08,25.2693c.0782.5472.3332,1.2014.4,1.7414-1.6728-.6091-3.3589-3.1491-3.9046-6.1672C4.1311,18.3869,4.347,15.3709,5.1462,13.825Z"></path><path class="cls-3" d="M18.4153,24.665a8.3622,8.3622,0,0,0-6.8342.8562,7.7419,7.7419,0,0,0-3.2992,4.1155q.4218-.3306.86-.664c3.3859-2.5772,5.3143-2.6329,7.4655-3.238A22.8074,22.8074,0,0,0,9.517,29.3305q-.5648.4113-1.1105.83c1.608.9458,4.2933.7048,6.44-.6995A8.27,8.27,0,0,0,18.4153,24.665Z"></path><path class="cls-3" d="M13.9567,3.21a10.4286,10.4286,0,0,1,1.4105,7.4343,11.1642,11.1642,0,0,1-2.5,5.5294q.151-.6053.3-1.227c1.1508-4.8121.6022-6.9674.4462-9.4834a34.533,34.533,0,0,1-.8713,9.2875c-.117.5279-.1035,1.2214-.2289,1.7382-1.3776-1.2-2.0926-4.1612-1.5557-7.1167C11.3954,6.9667,12.6557,4.3073,13.9567,3.21Z"></path><path class="cls-3" d="M23.1123,15.9978A8.73,8.73,0,0,0,16.2,14.9506a7.4756,7.4756,0,0,0-4.2507,3.0163q.4952-.1995,1.0074-.3973c3.956-1.5294,5.8608-1.0571,8.1194-1.0466a23.0839,23.0839,0,0,0-7.84,1.489q-.6553.2374-1.2936.4866c1.3435,1.3378,4.036,1.84,6.4872,1.0887A7.9622,7.9622,0,0,0,23.1123,15.9978Z"></path><path class="cls-4" d="M13.1659,14.6344l-.5492,1.476c-7.4525,13.319-6.6326,32.5154,3.17,48.61C28.0031,84.7783,50.2961,93.6576,67.58,86.2269l1.5536.5375C51.61,94.29,28.549,86.6941,15.3391,65.0051,5.0466,48.1062,4.74,28.1941,13.1659,14.6344Z"></path></svg>