<svg xmlns="http://www.w3.org/2000/svg" data-name="Layer 1" width="124.4048" height="95.6227" viewBox="0 0 124.4048 95.6227"><defs><style>.cls-8,.cls-9{fill:#fff;}.cls-9{fill-rule:evenodd;}</style></defs><title>award 3</title><path class="cls-8" d="M44.34,68.9742a2.0509,2.0509,0,0,1,.8253.7955,2.3191,2.3191,0,0,1,.2961,1.18,2.359,2.359,0,0,1-.2961,1.1921,2.04,2.04,0,0,1-.8253.8,2.5483,2.5483,0,0,1-1.2208.2839,2.5912,2.5912,0,0,1-1.2341-.2839,2.0329,2.0329,0,0,1-.8292-.8A2.3534,2.3534,0,0,1,40.76,70.95a2.3136,2.3136,0,0,1,.2961-1.18,2.0436,2.0436,0,0,1,.8292-.7955A2.5912,2.5912,0,0,1,43.119,68.69,2.5483,2.5483,0,0,1,44.34,68.9742ZM42.202,69.9906a1.5338,1.5338,0,0,0,0,1.9511,1.1959,1.1959,0,0,0,.917.3745,1.1758,1.1758,0,0,0,.9-.3745,1.5338,1.5338,0,0,0,0-1.9511,1.1758,1.1758,0,0,0-.9-.3745A1.1959,1.1959,0,0,0,42.202,69.9906Z"></path><path class="cls-8" d="M47.7995,68.0229a.5338.5338,0,0,0-.163.4253v.4585h1.117v.7921h-1.117v3.4845H46.5532V69.6989h-.5839v-.7921h.5839v-.4253a1.5463,1.5463,0,0,1,.2165-.8374,1.3689,1.3689,0,0,1,.5795-.52,1.7817,1.7817,0,0,1,.7877-.1757,1.8682,1.8682,0,0,1,.817.1922l-.1917.875a1.5487,1.5487,0,0,0-.55-.1337A.6075.6075,0,0,0,47.7995,68.0229Z"></path><path class="cls-8" d="M54.0471,72.9084a2.1168,2.1168,0,0,1-1.117.3248,1.34,1.34,0,0,1-.9424-.337A1.2906,1.2906,0,0,1,51.621,71.9V69.6989h-.6248l-.0088-.7921h.6336V67.6816h1.0755v1.2252H53.972v.7921H52.6965v2.0085a.6509.6509,0,0,0,.1166.4386.4481.4481,0,0,0,.35.1293,1.5652,1.5652,0,0,0,.6336-.1834Z"></path><path class="cls-8" d="M58.84,69.1443a1.7424,1.7424,0,0,1,.4419,1.2551v2.7841H58.19v-2.467a1.0049,1.0049,0,0,0-.2668-.738.9687.9687,0,0,0-.7253-.2707,1.1087,1.1087,0,0,0-.8584.3668,1.3336,1.3336,0,0,0-.3165.917v2.1919H54.9392V66.9977H56.023v2.5764a1.6893,1.6893,0,0,1,1.6086-.8916A1.5916,1.5916,0,0,1,58.84,69.1443Z"></path><path class="cls-8" d="M63.9633,69.299a2.498,2.498,0,0,1,.5375,1.7091q0,.2171-.0083.3248H61.2a1.2414,1.2414,0,0,0,1.2755,1.0164,1.6937,1.6937,0,0,0,.654-.1282,1.5989,1.5989,0,0,0,.5463-.3712l.5833.6087a2.2644,2.2644,0,0,1-.8126.5668,2.75,2.75,0,0,1-1.0628.2,2.4827,2.4827,0,0,1-1.2048-.2839,1.9811,1.9811,0,0,1-.8043-.7955,2.5871,2.5871,0,0,1,.0044-2.3632,2.04,2.04,0,0,1,.8043-.8054,2.3813,2.3813,0,0,1,1.1755-.2872A2.0307,2.0307,0,0,1,63.9633,69.299Zm-.4546,1.3081a1.0818,1.0818,0,0,0-.3248-.7833,1.269,1.269,0,0,0-1.6136-.0044,1.2728,1.2728,0,0,0-.3955.7877Z"></path><path class="cls-8" d="M68.7885,74.5711a1.53,1.53,0,0,1-.92.28,1.6948,1.6948,0,0,1-.5878-.0961,1.8326,1.8326,0,0,1-.5215-.3038l.4673-.8253a1.3879,1.3879,0,0,0,.2917.1712.7579.7579,0,0,0,.2828.0541.6843.6843,0,0,0,.6507-.4508l.1326-.2917-1.8417-4.385h1.1258l1.2661,3.2426,1.1578-3.2426h1.0938l-2.0008,5.0191A1.7471,1.7471,0,0,1,68.7885,74.5711Z"></path><path class="cls-8" d="M75.3156,69.299a2.4926,2.4926,0,0,1,.538,1.7091c0,.1447-.0033.253-.0088.3248H72.5525a1.2425,1.2425,0,0,0,1.2749,1.0164,1.6972,1.6972,0,0,0,.6551-.1282,1.6073,1.6073,0,0,0,.5458-.3712l.5833.6087a2.2569,2.2569,0,0,1-.8131.5668,2.7476,2.7476,0,0,1-1.0628.2,2.48,2.48,0,0,1-1.2042-.2839,1.9844,1.9844,0,0,1-.8043-.7955,2.5827,2.5827,0,0,1,.0044-2.3632,2.0362,2.0362,0,0,1,.8043-.8054,2.3813,2.3813,0,0,1,1.1755-.2872A2.0279,2.0279,0,0,1,75.3156,69.299Zm-.4541,1.3081a1.0818,1.0818,0,0,0-.3248-.7833,1.2682,1.2682,0,0,0-1.613-.0044,1.2767,1.2767,0,0,0-.3966.7877Z"></path><path class="cls-8" d="M79.4211,73.1835v-.5414a1.4428,1.4428,0,0,1-.6.4408,2.1968,2.1968,0,0,1-.8419.15,1.7963,1.7963,0,0,1-.8209-.179,1.3081,1.3081,0,0,1-.5458-.4961A1.3383,1.3383,0,0,1,76.42,71.85a1.1852,1.1852,0,0,1,.4419-.98,1.9871,1.9871,0,0,1,1.2506-.3624h1.3v-.1171a.748.748,0,0,0-.2585-.6076,1.1376,1.1376,0,0,0-.75-.2176,2.5765,2.5765,0,0,0-1.3258.4176l-.3911-.75a4.9238,4.9238,0,0,1,.9545-.422,3.5375,3.5375,0,0,1,1.0043-.1282,1.982,1.982,0,0,1,1.3456.4165,1.4832,1.4832,0,0,1,.4883,1.1667l.0077,2.9178Zm-.3834-1.0043a.7648.7648,0,0,0,.3756-.5458v-.401H78.2875a1.2229,1.2229,0,0,0-.6375.1293.4609.4609,0,0,0-.2044.4209.5422.5422,0,0,0,.2132.4508.9112.9112,0,0,0,.5789.1668A1.4159,1.4159,0,0,0,79.0377,72.1792Z"></path><path class="cls-8" d="M83.4017,68.92a1.7917,1.7917,0,0,1,.9037-.2375v1.05a1.47,1.47,0,0,0-1.1037.3215,1.2375,1.2375,0,0,0-.4132.9789v2.151H81.7047v-4.46h1.0838v.8584A1.6109,1.6109,0,0,1,83.4017,68.92Z"></path><path class="cls-8" d="M40.4636,20.8548a21.88,21.88,0,0,1,3.8072-.2977,6.7981,6.7981,0,0,1,4.1053.9143,3.024,3.024,0,0,1,1.4885,2.68,3.3354,3.3354,0,0,1-2.3822,3.1055v.0423a3.6146,3.6146,0,0,1,2.8928,3.5521,3.721,3.721,0,0,1-1.3827,2.9566c-1.021.8931-2.7012,1.34-5.3171,1.34a25.3131,25.3131,0,0,1-3.2119-.1915Zm2.5952,5.6576h1.34c1.8081,0,2.8289-.8506,2.8289-2.0632,0-1.34-1.0209-1.9567-2.68-1.9567a7.0981,7.0981,0,0,0-1.4885.1065Zm0,6.5937a11.5634,11.5634,0,0,0,1.3825.0639c1.6806,0,3.1688-.6379,3.1688-2.4035,0-1.6591-1.4462-2.34-3.2541-2.34H43.0589Z"></path><path class="cls-8" d="M60.7322,28.64H55.33v4.211h6.04V34.999H52.7134V20.6633h8.3374v2.1483H55.33v3.7008h5.402Z"></path><path class="cls-8" d="M63.6024,32.1489a7.2429,7.2429,0,0,0,3.4674.9147c1.68,0,2.6158-.7869,2.6158-1.9566,0-1.085-.7228-1.7231-2.5523-2.3823-2.3608-.8508-3.8711-2.1059-3.8711-4.1689,0-2.34,1.9574-4.1262,5.0622-4.1262a7.5664,7.5664,0,0,1,3.4454.7232l-.6379,2.1058a6.0637,6.0637,0,0,0-2.85-.6806c-1.66,0-2.3819.8931-2.3819,1.7225,0,1.106.8292,1.6167,2.7435,2.3611,2.4883.9357,3.701,2.1908,3.701,4.2539,0,2.2971-1.7448,4.2964-5.4451,4.2964a8.5106,8.5106,0,0,1-3.8711-.8934Z"></path><path class="cls-8" d="M77.4479,22.854H73.3651V20.6633H84.1908V22.854H80.0649V34.999h-2.617Z"></path><path class="cls-8" d="M25.726,56.4577l-1.2334,4.0629H21.7914l4.595-14.3358h3.3391l4.6579,14.3358H31.5759l-1.2974-4.0629Zm4.1056-1.978-1.1272-3.5306c-.2764-.8718-.51-1.8505-.7232-2.68h-.0423c-.2129.8295-.4255,1.8291-.6808,2.68L26.1518,54.48Z"></path><path class="cls-8" d="M46.2082,60.0953a9.0693,9.0693,0,0,1-3.7017.6379c-4.5513,0-7.3162-2.85-7.3162-7.21,0-4.722,3.2758-7.572,7.6569-7.572a8.2376,8.2376,0,0,1,3.4886.638l-.5746,2.0842a6.9639,6.9639,0,0,0-2.8079-.5528c-2.9136,0-5.0192,1.8291-5.0192,5.2747,0,3.1479,1.85,5.1684,4.9981,5.1684a7.3233,7.3233,0,0,0,2.85-.5314Z"></path><path class="cls-8" d="M51.6085,48.3754H47.5253V46.1848H58.3514v2.1906H54.2249V60.5206H51.6085Z"></path><path class="cls-8" d="M60.0308,46.3759a24.8843,24.8843,0,0,1,3.9558-.2976c2.0629,0,3.4671.34,4.4242,1.1486a3.6285,3.6285,0,0,1,1.2343,2.8713A3.8239,3.8239,0,0,1,67.05,53.6929v.0639a3.6483,3.6483,0,0,1,1.999,2.7651,28.6728,28.6728,0,0,0,1.1273,3.9987H67.4752a20.2405,20.2405,0,0,1-.9571-3.3818c-.4042-1.8718-1.085-2.4675-2.5733-2.51H62.6255v5.8918H60.0308Zm2.5947,6.3387h1.5527c1.7655,0,2.8716-.936,2.8716-2.3611,0-1.574-1.1062-2.2971-2.8076-2.2971a7.5455,7.5455,0,0,0-1.6167.1275Z"></path><path class="cls-8" d="M80.15,54.161H74.7476v4.2113h6.041v2.1483H72.132V46.1848H80.47v2.1478h-5.722v3.701H80.15Z"></path><path class="cls-8" d="M83.0206,57.67a7.245,7.245,0,0,0,3.4672.9144c1.68,0,2.6161-.7868,2.6161-1.9568,0-1.0845-.7229-1.7226-2.5524-2.3822C84.1908,53.3951,82.68,52.14,82.68,50.0773c0-2.34,1.9575-4.1264,5.0627-4.1264a7.5718,7.5718,0,0,1,3.4455.723L90.55,48.78a6.067,6.067,0,0,0-2.85-.68c-1.6588,0-2.3819.8931-2.3819,1.7225,0,1.1063.8292,1.6165,2.7438,2.3611,2.4883.9358,3.7009,2.1908,3.7009,4.2539,0,2.2971-1.7443,4.2964-5.4446,4.2964a8.5162,8.5162,0,0,1-3.8715-.8933Z"></path><path class="cls-8" d="M94.0589,57.67a7.2424,7.2424,0,0,0,3.4671.9144c1.68,0,2.6159-.7868,2.6159-1.9568,0-1.0845-.7234-1.7226-2.5524-2.3822-2.3613-.8507-3.8709-2.1054-3.8709-4.1684,0-2.34,1.9563-4.1264,5.0626-4.1264a7.5712,7.5712,0,0,1,3.4454.723L101.588,48.78a6.0683,6.0683,0,0,0-2.85-.68c-1.6586,0-2.3822.8931-2.3822,1.7225,0,1.1063.83,1.6165,2.7443,2.3611,2.4883.9358,3.7005,2.1908,3.7005,4.2539,0,2.2971-1.7434,4.2964-5.4448,4.2964a8.5166,8.5166,0,0,1-3.8711-.8933Z"></path><path class="cls-8" d="M36.7893,6.9758l-1.4482.9271a45.8429,45.8429,0,0,0-26.4378,41.66A45.0643,45.0643,0,0,0,47.6006,94.3673l1.2263,1.2554c-22.1082-2.979-40.5446-21.299-40.5446-46.06A45.8985,45.8985,0,0,1,36.7893,6.9758Z"></path><path class="cls-9" d="M31.016,76.5137c.5035,4.6647-.2615,3.97.0248,7.7615.2447,3.2545,2.1933,5.2245,3.8234,7.0091a11.2982,11.2982,0,0,0,.1807-8.4252A16.0217,16.0217,0,0,0,31.016,76.5137Z"></path><path class="cls-9" d="M24.3636,75.6828c.3319,3.0739-.1723,2.6162.0163,5.1145.1613,2.1447,1.4453,3.4428,2.52,4.6188a7.4444,7.4444,0,0,0,.1191-5.5519A10.5575,10.5575,0,0,0,24.3636,75.6828Z"></path><path class="cls-9" d="M21.1926,93.0264c4.5711-.7556,3.4595-1.7611,6.6694-2.9073,2.7567-.9845,6.7527.2493,9.4168,1.5921a8.2209,8.2209,0,0,1-7.5266,3.7736C27.2444,95.4192,22.6756,94.2133,21.1926,93.0264Z"></path><path class="cls-9" d="M18.1058,84.8524c3.2152.5419,2.6689-.3875,5.0487-.42,2.0439-.0279,4.4794,1.7164,6,3.2281a5.6122,5.6122,0,0,1-5.7954.8041A14.5327,14.5327,0,0,1,18.1058,84.8524Z"></path><path class="cls-9" d="M21.9488,64.0774c-1.4268,4.438-1.836,3.455-3.1065,7.0047-1.0915,3.0465-.13,5.7311.6193,8.1a10.9046,10.9046,0,0,0,3.5592-7.5066A17.0469,17.0469,0,0,0,21.9488,64.0774Z"></path><path class="cls-9" d="M16.245,61.6762c-.94,2.9245-1.21,2.2767-2.047,4.6159-.7193,2.0076-.0857,3.7766.4081,5.3377a7.1858,7.1858,0,0,0,2.3455-4.9466A11.2342,11.2342,0,0,0,16.245,61.6762Z"></path><path class="cls-9" d="M6.3962,75.8225c4.4231,1.4532,3.8269.0282,7.1811.4941,2.8807.4,5.9837,3.3771,7.8427,5.8307-3.5854,2.3157-7.1594.5154-8.3028-.1137C10.8843,80.8037,7.254,77.5842,6.3962,75.8225Z"></path><path class="cls-9" d="M6.91,67.0166c2.6785,1.9894,2.5609.8969,4.7182,1.9789,1.8528.9291,3.3439,3.6376,4.1046,5.71-2.8633.7306-4.9035-1.2967-5.5457-1.981A15.9619,15.9619,0,0,1,6.91,67.0166Z"></path><path class="cls-9" d="M16.0987,49.7213c-2.33,3.97-2.52,2.9129-4.51,6.057-1.7087,2.6981-1.3419,5.548-1.1147,8.0384a10.4639,10.4639,0,0,0,5.0572-6.4345A17.1175,17.1175,0,0,0,16.0987,49.7213Z"></path><path class="cls-9" d="M14.5765,45.2661c-2.026,2.1961-2.0079,1.4865-3.7052,3.2033-1.4574,1.4731-1.6,3.3627-1.7841,5a6.593,6.593,0,0,0,4.1074-3.3619A11.1065,11.1065,0,0,0,14.5765,45.2661Z"></path><path class="cls-9" d="M0,53.4141c3.3994,3.3743,3.4367,1.812,6.271,3.7977,2.4343,1.7052,4.03,5.8363,4.7158,8.9147-4.1641.4127-6.6585-2.8779-7.435-3.9785C2.0358,59.9974.0626,55.4018,0,53.4141Z"></path><path class="cls-9" d="M4.0129,45.72c1.6114,3.0429,1.9458,2.0037,3.4533,3.9856,1.2948,1.702,1.5465,4.8386,1.3966,7.0606-2.8743-.6786-3.8954-3.4576-4.1982-4.3739A16.8484,16.8484,0,0,1,4.0129,45.72Z"></path><path class="cls-9" d="M20.0913,34.021c-3.766,2.3725-3.4829,1.3394-6.5933,3.1465-2.67,1.55-3.5626,4.2624-4.4251,6.5863a9.5264,9.5264,0,0,0,7.24-3.2109A16.2028,16.2028,0,0,0,20.0913,34.021Z"></path><path class="cls-9" d="M46.9521,3.5225c-2.1086.3827-1.8121-.0378-3.5291.2085a5.1,5.1,0,0,0-3.0912,2.19,4.5022,4.5022,0,0,0,3.8361-.117A7.3631,7.3631,0,0,0,46.9521,3.5225Z"></path><path class="cls-9" d="M19.6886,29.7017c-2.7108,1.0327-2.4084.4019-4.63,1.1563-1.907.6469-2.797,2.2831-3.623,3.6719a6.1216,6.1216,0,0,0,5.056-1.1116A10.2773,10.2773,0,0,0,19.6886,29.7017Z"></path><path class="cls-9" d="M3.27,30.2381c1.7025,4.6273,2.3659,3.237,4.1192,6.3493,1.506,2.6728,1.2782,7.14.6552,10.2338C4.1267,45.2489,3.2058,41.12,2.95,39.7654,2.4508,37.12,2.5256,32.0583,3.27,30.2381Z"></path><path class="cls-9" d="M9.9877,25.179c.2252,3.4939.9455,2.7137,1.5049,5.2032.48,2.138-.5572,5.0816-1.588,7.0136-2.3163-1.9533-2.1159-4.9339-2.0193-5.9008C8.0747,29.6064,9.1276,26.2288,9.9877,25.179Z"></path><path class="cls-9" d="M24.172,22.5055c-3.5218,1.1387-3.0993.353-5.98,1.1687-2.4728.6993-3.7037,2.73-4.8386,4.4489A7.7947,7.7947,0,0,0,19.8753,27.04,13.0064,13.0064,0,0,0,24.172,22.5055Z"></path><path class="cls-9" d="M30.0976,18.0646c-2.8588-.3349-2.3321-.7621-4.6376-1.1194-1.9789-.3074-3.44.7514-4.7446,1.6171A6.11,6.11,0,0,0,25.719,19.921,9.3973,9.3973,0,0,0,30.0976,18.0646Z"></path><path class="cls-9" d="M15.5962,11.7389c-.3138,4.7019.7831,3.8088,1.091,7.24.2646,2.9469-1.6354,6.6585-3.3485,9.0235-2.7436-3.0744-1.9528-7.0056-1.6541-8.2746C12.2689,17.25,14.2654,12.9629,15.5962,11.7389Z"></path><path class="cls-9" d="M23.6517,9.461c-1.2056,3.2531-.242,2.8864-.7417,5.3906-.4289,2.1506-2.55,4.3184-4.2581,5.5779a6.8268,6.8268,0,0,1,.5594-6.2593C20.1433,12.5569,22.4535,10.0053,23.6517,9.461Z"></path><path class="cls-9" d="M38.26,13.3915c-3.875-.7614-3.1161-1.2892-6.2332-2.0223-2.6753-.63-4.7693.6609-6.63,1.7052a8.432,8.432,0,0,0,6.7114,2.3879A12.7365,12.7365,0,0,0,38.26,13.3915Z"></path><path class="cls-9" d="M44.7271,9.1132c-2.7855-.769-2.2076-1.1113-4.4426-1.8177-1.9181-.607-3.5047.2172-4.91.8746a6.2121,6.2121,0,0,0,4.7732,2.1106A9.22,9.22,0,0,0,44.7271,9.1132Z"></path><path class="cls-9" d="M33.7495,0c-2.15,4.0362-.8188,3.7475-1.91,6.94-.9371,2.7423-4.1031,5.1671-6.5673,6.4807a8.9737,8.9737,0,0,1,1.8211-8.1195C28.5986,3.367,32.0793.4752,33.7495,0Z"></path><path class="cls-9" d="M42.2993,1.1343C39.9016,3.5027,40.9176,3.622,39.4579,5.645c-1.2535,1.7375-4.0389,2.7-6.0852,3.0379A6.464,6.464,0,0,1,36.4,3.3044C37.89,2.2859,41,1.0655,42.2993,1.1343Z"></path><path class="cls-8" d="M87.6155,6.9758l1.4482.9271a45.8429,45.8429,0,0,1,26.4378,41.66A45.0643,45.0643,0,0,1,76.8042,94.3673l-1.2263,1.2554c22.1082-2.979,40.5446-21.299,40.5446-46.06A45.8985,45.8985,0,0,0,87.6155,6.9758Z"></path><path class="cls-9" d="M93.3888,76.5137c-.5036,4.6647.2615,3.97-.0248,7.7615-.2448,3.2545-2.1933,5.2245-3.8234,7.0091a11.2982,11.2982,0,0,1-.1807-8.4252A16.0208,16.0208,0,0,1,93.3888,76.5137Z"></path><path class="cls-9" d="M100.0412,75.6828c-.3318,3.0739.1724,2.6162-.0163,5.1145-.1612,2.1447-1.4453,3.4428-2.5194,4.6188a7.4448,7.4448,0,0,1-.1191-5.5519A10.5585,10.5585,0,0,1,100.0412,75.6828Z"></path><path class="cls-9" d="M103.2122,93.0264c-4.5711-.7556-3.4595-1.7611-6.6694-2.9073-2.7567-.9845-6.7527.2493-9.4167,1.5921a8.2209,8.2209,0,0,0,7.5266,3.7736C97.16,95.4192,101.7291,94.2133,103.2122,93.0264Z"></path><path class="cls-9" d="M106.299,84.8524c-3.2152.5419-2.6689-.3875-5.0488-.42-2.0438-.0279-4.4794,1.7164-6,3.2281a5.6122,5.6122,0,0,0,5.7954.8041A14.5328,14.5328,0,0,0,106.299,84.8524Z"></path><path class="cls-9" d="M102.456,64.0774c1.4267,4.438,1.8361,3.455,3.1065,7.0047,1.0915,3.0465.13,5.7311-.6193,8.1a10.9042,10.9042,0,0,1-3.5592-7.5066A17.0454,17.0454,0,0,1,102.456,64.0774Z"></path><path class="cls-9" d="M108.16,61.6762c.94,2.9245,1.21,2.2767,2.0471,4.6159.7191,2.0076.0856,3.7766-.4082,5.3377a7.1853,7.1853,0,0,1-2.3454-4.9466A11.2331,11.2331,0,0,1,108.16,61.6762Z"></path><path class="cls-9" d="M118.0086,75.8225c-4.4231,1.4532-3.8269.0282-7.1811.4941-2.8807.4-5.9838,3.3771-7.8427,5.8307,3.5854,2.3157,7.1594.5154,8.3027-.1137C113.52,80.8037,117.1509,77.5842,118.0086,75.8225Z"></path><path class="cls-9" d="M117.4947,67.0166c-2.6786,1.9894-2.5609.8969-4.7182,1.9789-1.8528.9291-3.344,3.6376-4.1046,5.71,2.8633.7306,4.9035-1.2967,5.5457-1.981A15.9614,15.9614,0,0,0,117.4947,67.0166Z"></path><path class="cls-9" d="M108.3061,49.7213c2.33,3.97,2.52,2.9129,4.51,6.057,1.7087,2.6981,1.3419,5.548,1.1147,8.0384a10.4639,10.4639,0,0,1-5.0572-6.4345A17.1166,17.1166,0,0,1,108.3061,49.7213Z"></path><path class="cls-9" d="M109.8283,45.2661c2.026,2.1961,2.008,1.4865,3.7052,3.2033,1.4574,1.4731,1.6,3.3627,1.7841,5a6.5926,6.5926,0,0,1-4.1074-3.3619A11.1063,11.1063,0,0,1,109.8283,45.2661Z"></path><path class="cls-9" d="M124.4048,53.4141c-3.3994,3.3743-3.4367,1.812-6.271,3.7977-2.4343,1.7052-4.03,5.8363-4.7157,8.9147,4.164.4127,6.6584-2.8779,7.4349-3.9785C122.369,59.9974,124.3422,55.4018,124.4048,53.4141Z"></path><path class="cls-9" d="M120.3919,45.72c-1.6114,3.0429-1.9459,2.0037-3.4533,3.9856-1.2948,1.702-1.5465,4.8386-1.3966,7.0606,2.8744-.6786,3.8953-3.4576,4.1981-4.3739A16.8484,16.8484,0,0,0,120.3919,45.72Z"></path><path class="cls-9" d="M104.3135,34.021c3.766,2.3725,3.4829,1.3394,6.5933,3.1465,2.67,1.55,3.5626,4.2624,4.4252,6.5863a9.5267,9.5267,0,0,1-7.24-3.2109A16.2034,16.2034,0,0,1,104.3135,34.021Z"></path><path class="cls-9" d="M77.4527,3.5225c2.1086.3827,1.8121-.0378,3.529.2085a5.1,5.1,0,0,1,3.0912,2.19,4.5021,4.5021,0,0,1-3.836-.117A7.3631,7.3631,0,0,1,77.4527,3.5225Z"></path><path class="cls-9" d="M104.7163,29.7017c2.7107,1.0327,2.4084.4019,4.63,1.1563,1.9068.6469,2.7969,2.2831,3.6229,3.6719a6.1216,6.1216,0,0,1-5.056-1.1116A10.277,10.277,0,0,1,104.7163,29.7017Z"></path><path class="cls-9" d="M121.1343,30.2381c-1.7026,4.6273-2.3659,3.237-4.1192,6.3493-1.506,2.6728-1.2782,7.14-.6552,10.2338,3.9181-1.5722,4.8391-5.7015,5.095-7.0557C121.9541,37.12,121.8793,32.0583,121.1343,30.2381Z"></path><path class="cls-9" d="M114.4171,25.179c-.2253,3.4939-.9455,2.7137-1.5048,5.2032-.4805,2.138.5571,5.0816,1.5879,7.0136,2.3163-1.9533,2.1159-4.9339,2.0193-5.9008C116.33,29.6064,115.2772,26.2288,114.4171,25.179Z"></path><path class="cls-9" d="M100.2328,22.5055c3.5218,1.1387,3.0993.353,5.98,1.1687,2.4728.6993,3.7036,2.73,4.8387,4.4489A7.7948,7.7948,0,0,1,104.53,27.04,13.0069,13.0069,0,0,1,100.2328,22.5055Z"></path><path class="cls-9" d="M94.3073,18.0646c2.8587-.3349,2.332-.7621,4.6375-1.1194,1.9788-.3074,3.44.7514,4.7446,1.6171a6.11,6.11,0,0,1-5.0036,1.3588A9.3961,9.3961,0,0,1,94.3073,18.0646Z"></path><path class="cls-9" d="M108.8086,11.7389c.3138,4.7019-.7832,3.8088-1.091,7.24-.2647,2.9469,1.6353,6.6585,3.3485,9.0235,2.7436-3.0744,1.9528-7.0056,1.6541-8.2746C112.1359,17.25,110.1393,12.9629,108.8086,11.7389Z"></path><path class="cls-9" d="M100.7531,9.461c1.2055,3.2531.2421,2.8864.7418,5.3906.4289,2.1506,2.55,4.3184,4.2581,5.5779a6.8268,6.8268,0,0,0-.5594-6.2593C104.2615,12.5569,101.9513,10.0053,100.7531,9.461Z"></path><path class="cls-9" d="M86.1447,13.3915c3.8749-.7614,3.1161-1.2892,6.2332-2.0223,2.6754-.63,4.7693.6609,6.63,1.7052a8.4319,8.4319,0,0,1-6.7114,2.3879A12.7366,12.7366,0,0,1,86.1447,13.3915Z"></path><path class="cls-9" d="M79.6777,9.1132c2.7854-.769,2.2076-1.1113,4.4426-1.8177,1.9182-.607,3.5047.2172,4.91.8746a6.2125,6.2125,0,0,1-4.7733,2.1106A9.2193,9.2193,0,0,1,79.6777,9.1132Z"></path><path class="cls-9" d="M90.6553,0c2.15,4.0362.8188,3.7475,1.91,6.94.9371,2.7423,4.1031,5.1671,6.5672,6.4807a8.9735,8.9735,0,0,0-1.8211-8.1195C95.8063,3.367,92.3255.4752,90.6553,0Z"></path><path class="cls-9" d="M82.1055,1.1343c2.3977,2.3683,1.3817,2.4877,2.8414,4.5107,1.2535,1.7375,4.0389,2.7,6.0851,3.0379a6.4637,6.4637,0,0,0-3.0273-5.3785C86.5148,2.2859,83.4046,1.0655,82.1055,1.1343Z"></path></svg>