<svg xmlns="http://www.w3.org/2000/svg" data-name="Layer 1" width="26.6419" height="30" viewBox="0 0 26.6419 30"><defs><style>.cls-12{fill:#fff;}</style></defs><title>movie-r</title><path class="cls-12" d="M5.9952,17.7039H2.7535v1.9355h16.914a1.3764,1.3764,0,0,1,1.1935.69L26.04,27.8435a1.3724,1.3724,0,0,1-2.2587,1.56l-4.8313-7.01H7.36v6.23A1.3769,1.3769,0,0,1,5.9833,30H1.3767A1.3769,1.3769,0,0,1,0,28.6232V24.1214a1.3768,1.3768,0,0,1,2.7535,0v3.125h1.853V22.3929h-3.23A1.3769,1.3769,0,0,1,0,21.0161v-4.689A1.3769,1.3769,0,0,1,1.3767,14.95h3.23V1.3768A1.3769,1.3769,0,0,1,5.9833,0h12.22a8.0134,8.0134,0,0,1,7.7781,5.2977A9.8525,9.8525,0,0,1,26.6419,8.85h-.0053a9.7024,9.7024,0,0,1-.6688,3.5632,8.261,8.261,0,0,1-8.1265,5.2908ZM7.36,2.7535V14.95H17.8412a5.6318,5.6318,0,0,0,5.5773-3.5484A6.947,6.947,0,0,0,23.8937,8.85h-.0053a7.1085,7.1085,0,0,0-.4669-2.5626,5.3651,5.3651,0,0,0-5.2182-3.5337ZM2.7535,12.935A1.3768,1.3768,0,1,1,0,12.935V1.75A1.3769,1.3769,0,0,1,1.3767.373h1.38a1.3768,1.3768,0,0,1,0,2.7535H2.7535V12.935Z"></path></svg>