<svg xmlns="http://www.w3.org/2000/svg" viewBox="0 0 114.0604 90.3243" style="enable-background:new 0 0 100 84; stroke: transparent;" xml:space="preserve">
<defs>
<style>.cls-5,.cls-7{fill:#fff;}.cls-5{fill-rule:evenodd;}.cls-6{fill:#fff;}</style>
</defs>
<title>award 2</title>
<path class="cls-5" d="M31.1288,69.2993c.49,4.2187-.2546,3.5905.0242,7.02.2382,2.9433,2.1345,4.725,3.7211,6.339a9.55,9.55,0,0,0,.1759-7.62A14.4286,14.4286,0,0,0,31.1288,69.2993Z"></path><path class="cls-5" d="M20.22,84.239c4.4488-.6833,3.3668-1.5927,6.491-2.6293,2.683-.89,6.5721.2255,9.1648,1.44C33.6405,86.45,29.8,86.4924,28.5507,86.4625,26.11,86.4031,21.6635,85.3125,20.22,84.239Z"></path><path class="cls-5" d="M25.1841,64.8008c-.4363,4.1275-.9178,3.3182-1.37,6.6378-.388,2.8509.8048,5.085,1.7788,7.0716a10.3231,10.3231,0,0,0,1.6508-7.1484A16.8151,16.8151,0,0,0,25.1841,64.8008Z"></path><path class="cls-5" d="M11.9894,76.6129c4.1651.3012,3.3269-.7223,6.3394-1.0034,2.59-.24,6.0909,1.3835,8.2591,2.9841-2.5837,2.5509-6.2283,1.96-7.3616,1.68C17.0109,79.7236,13.134,77.8554,11.9894,76.6129Z"></path><path class="cls-5" d="M20.1453,59.0253c-1.1307,3.7973-1.4747,2.9443-2.4856,5.98-.8678,2.6068-.0538,4.9357.5836,6.99a9.3147,9.3147,0,0,0,2.8516-6.4072A15.5543,15.5543,0,0,0,20.1453,59.0253Z"></path><path class="cls-5" d="M5.5988,67.1022c3.8445,1.2432,3.2761.079,6.1643.5053,2.4813.3668,5.3976,2.7988,7.09,4.8153-2.9705,1.8261-6.2422.3415-7.246-.1851C9.6457,71.2076,6.4069,68.5442,5.5988,67.1022Z"></path><path class="cls-5" d="M17.14,51.3262c-1.9476,3.51-2.0991,2.5743-3.7615,5.3543-1.4267,2.3866-1.1365,4.9088-.96,7.1122a9.2864,9.2864,0,0,0,4.2166-5.69A16.1493,16.1493,0,0,0,17.14,51.3262Z"></path><path class="cls-5" d="M1.02,56.0843c3.5869,2.1264,3.2505.8332,6.0454,1.9232,2.4012.9373,4.8271,4.0367,6.1164,6.44-3.3233,1.14-6.29-1.0936-7.1874-1.8524C4.2427,61.1164,1.54,57.71,1.02,56.0843Z"></path><path class="cls-5" d="M15.603,43.406c-2.4013,2.9754-2.3895,2.0627-4.403,4.3978-1.7281,2.0043-1.87,4.4419-2.0658,6.5588A8.7264,8.7264,0,0,0,14.0177,49.73,15.5826,15.5826,0,0,0,15.603,43.406Z"></path><path class="cls-5" d="M0,44.6643c2.922,2.8363,2.8844,1.5414,5.2839,3.2183,2.0619,1.4411,3.6791,4.9241,4.3746,7.487-3.379.3-5.6936-2.4938-6.3754-3.4158C1.9509,50.1518.14,46.316,0,44.6643Z"></path><path class="cls-5" d="M15.3563,36.1764c-2.6409,2.2478-2.4616,1.439-4.6455,3.1811-1.8763,1.4967-2.4511,3.64-3.0146,5.4892a8.0356,8.0356,0,0,0,5.108-3.3111A14.6137,14.6137,0,0,0,15.3563,36.1764Z"></path><path class="cls-5" d="M1.2119,34.2291c2.1353,3.1207,2.3,1.9479,4.1527,3.9232,1.5927,1.6986,2.482,5.1473,2.7029,7.5891-3.0156-.3873-4.6235-3.3522-5.082-4.3149C2.09,39.5469,1.0828,35.7424,1.2119,34.2291Z"></path><path class="cls-5" d="M16.8183,29.6562c-2.7173,1.4843-2.4516.7758-4.6832,1.8952-1.9178.9618-2.7145,2.8167-3.4635,4.4023a6.6229,6.6229,0,0,0,5.127-1.9125A11.99,11.99,0,0,0,16.8183,29.6562Z"></path><path class="cls-5" d="M4.3607,24.5236c1.4522,3.3356,1.8979,2.2945,3.3322,4.5162,1.2319,1.9092,1.3288,5.2715.9778,7.5631-3.0028-1.0193-3.9506-4.0955-4.1938-5.08C4.0029,29.6,3.87,25.8845,4.3607,24.5236Z"></path><path class="cls-5" d="M19.2069,23.5221c-2.6107,1.1514-2.3183.52-4.4563,1.375-1.8367.7331-2.6963,2.378-3.4932,3.778A6.0793,6.0793,0,0,0,16.1235,27.32,10.861,10.861,0,0,0,19.2069,23.5221Z"></path><path class="cls-5" d="M9.18,16.831c.6974,3.34,1.2854,2.4817,2.1679,4.8015.7576,1.9942.2357,5.0817-.4935,7.1C8.35,27.1879,8.058,24.1876,8.0181,23.2392A16.2236,16.2236,0,0,1,9.18,16.831Z"></path><path class="cls-5" d="M22.4924,18.0059c-2.5781.7858-2.2523.2113-4.3562.7685-1.808.4784-2.7505,1.963-3.6149,3.2183a5.5758,5.5758,0,0,0,4.748-.6978A9.7192,9.7192,0,0,0,22.4924,18.0059Z"></path><path class="cls-5" d="M14.4536,10.8132c.11,3.1149.7042,2.3989,1.1031,4.6064.343,1.8979-.5,4.6483-1.366,6.4042-1.82-1.6811-1.6484-4.4423-1.5515-5.3093A16.6789,16.6789,0,0,1,14.4536,10.8132Z"></path><path class="cls-5" d="M26.6472,13.7376c-2.5542.2195-2.1554-.2675-4.2267-.17-1.7791.0834-2.9033,1.32-3.9178,2.351a5.1756,5.1756,0,0,0,4.5828.32A8.72,8.72,0,0,0,26.6472,13.7376Z"></path><path class="cls-5" d="M19.7116,6.0663c-.1964,2.7882.4182,2.2309.5747,4.25a10.1945,10.1945,0,0,1-1.8694,5.5161c-1.5148-1.7418-1.0918-4.1777-.9207-4.935A14.07,14.07,0,0,1,19.7116,6.0663Z"></path><path class="cls-5" d="M30.1676,10.4952c-2.2-.03-1.8037-.3621-3.5784-.4462a5.7133,5.7133,0,0,0-3.6117,1.4572,4.9342,4.9342,0,0,0,3.8645.5853A8.2123,8.2123,0,0,0,30.1676,10.4952Z"></path><path class="cls-5" d="M25.1479,3.0123c-.4862,2.4187.1494,2.0557.0778,3.8694a7.8941,7.8941,0,0,1-2.3483,4.4758A5.0646,5.0646,0,0,1,22.5506,6.81,10.7729,10.7729,0,0,1,25.1479,3.0123Z"></path><path class="cls-5" d="M33.2876,8.3593c-1.7382-.3476-1.405-.62-2.8033-.9593a3.6544,3.6544,0,0,0-2.9461.9215A3.493,3.493,0,0,0,30.5588,9.46,5.3015,5.3015,0,0,0,33.2876,8.3593Z"></path><path class="cls-5" d="M31.3324,1.2434c-.9617,1.978-.3675,1.7367-.8551,3.2487a8.4221,8.4221,0,0,1-2.9364,3.5169,4.6948,4.6948,0,0,1,.8169-3.8411A11.5466,11.5466,0,0,1,31.3324,1.2434Z"></path><path class="cls-5" d="M37.6292,5.4974c-1.659-.1958-1.3734-.4781-2.7137-.6923a3.339,3.339,0,0,0-2.6622,1.0924,3.3146,3.3146,0,0,0,2.9353.8445A4.8194,4.8194,0,0,0,37.6292,5.4974Z"></path><path class="cls-5" d="M36.7879,0c-1.1609,1.736-.5474,1.6629-1.19,3.0617A6.5967,6.5967,0,0,1,32.32,5.792,4.3067,4.3067,0,0,1,33.536,2.1158,8.9814,8.9814,0,0,1,36.7879,0Z"></path><path class="cls-5" d="M40.881,2.101c-1.2555.6268-.8618.8052-1.6969,1.4164a4.27,4.27,0,0,1-2.8508.4589,2.7525,2.7525,0,0,1,1.9084-1.7782A5.9074,5.9074,0,0,1,40.881,2.101Z"></path><path class="cls-5" d="M48.0609,88.5342c-2.212-1.9863-15.3538-7.7927-15.515-7.8493C14.4969,74.3156,4.5876,51.223,10.3543,32.219,14.39,18.918,21.6285,10.4321,32.3768,5.8846l.1779-.6488C21.7988,9.6171,12.898,19.3721,9.3294,32.3864,3.52,53.57,13.9657,75.5459,32.748,81.8851a95.3661,95.3661,0,0,1,9.33,4.6142c1.227.8385,4.4369,2.8011,5.6086,3.7265C48.2767,90.6922,49.0221,89.3974,48.0609,88.5342Z"></path><path class="cls-5" d="M82.9315,69.2993c-.49,4.2187.2545,3.5905-.0241,7.02-.2382,2.9433-2.1346,4.725-3.7211,6.339a9.55,9.55,0,0,1-.1759-7.62A14.4286,14.4286,0,0,1,82.9315,69.2993Z"></path><path class="cls-5" d="M93.84,84.239c-4.4488-.6833-3.3668-1.5927-6.491-2.6293-2.683-.89-6.5721.2255-9.1649,1.44C80.42,86.45,84.26,86.4924,85.51,86.4625,87.95,86.4031,92.3968,85.3125,93.84,84.239Z"></path><path class="cls-5" d="M88.8763,64.8008c.4363,4.1275.9179,3.3182,1.37,6.6378.388,2.8509-.8048,5.085-1.7788,7.0716a10.3227,10.3227,0,0,1-1.6508-7.1484A16.8151,16.8151,0,0,1,88.8763,64.8008Z"></path><path class="cls-5" d="M102.0709,76.6129c-4.1651.3012-3.3269-.7223-6.3395-1.0034-2.59-.24-6.0909,1.3835-8.259,2.9841,2.5837,2.5509,6.2283,1.96,7.3615,1.68C97.0495,79.7236,100.9264,77.8554,102.0709,76.6129Z"></path><path class="cls-5" d="M93.915,59.0253c1.1306,3.7973,1.4746,2.9443,2.4855,5.98.8679,2.6068.0539,4.9357-.5836,6.99a9.3151,9.3151,0,0,1-2.8517-6.4072A15.5549,15.5549,0,0,1,93.915,59.0253Z"></path><path class="cls-5" d="M108.4616,67.1022c-3.8446,1.2432-3.2762.079-6.1644.5053-2.4812.3668-5.3975,2.7988-7.09,4.8153,2.9706,1.8261,6.2422.3415,7.2462-.1851C104.4146,71.2076,107.6534,68.5442,108.4616,67.1022Z"></path><path class="cls-5" d="M96.9206,51.3262c1.9476,3.51,2.0991,2.5743,3.7615,5.3543,1.4267,2.3866,1.1366,4.9088.96,7.1122a9.2863,9.2863,0,0,1-4.2167-5.69A16.1493,16.1493,0,0,1,96.9206,51.3262Z"></path><path class="cls-5" d="M113.0405,56.0843c-3.5869,2.1264-3.2506.8332-6.0454,1.9232-2.4012.9373-4.827,4.0367-6.1164,6.44,3.3233,1.14,6.29-1.0936,7.1873-1.8524C109.8177,61.1164,112.52,57.71,113.0405,56.0843Z"></path><path class="cls-5" d="M98.4574,43.406c2.4013,2.9754,2.39,2.0627,4.403,4.3978,1.7282,2.0043,1.87,4.4419,2.0658,6.5588a8.7263,8.7263,0,0,1-4.8835-4.6331A15.5829,15.5829,0,0,1,98.4574,43.406Z"></path><path class="cls-5" d="M114.06,44.6643c-2.922,2.8363-2.8844,1.5414-5.284,3.2183-2.0619,1.4411-3.679,4.9241-4.3746,7.487,3.3791.3,5.6937-2.4938,6.3755-3.4158C112.1094,50.1518,113.9208,46.316,114.06,44.6643Z"></path><path class="cls-5" d="M98.7041,36.1764c2.6408,2.2478,2.4616,1.439,4.6455,3.1811,1.8762,1.4967,2.4511,3.64,3.0146,5.4892a8.0354,8.0354,0,0,1-5.108-3.3111A14.6152,14.6152,0,0,1,98.7041,36.1764Z"></path><path class="cls-5" d="M112.8484,34.2291c-2.1353,3.1207-2.3,1.9479-4.1527,3.9232-1.5926,1.6986-2.482,5.1473-2.7029,7.5891,3.0157-.3873,4.6235-3.3522,5.082-4.3149C111.9706,39.5469,112.9776,35.7424,112.8484,34.2291Z"></path><path class="cls-5" d="M97.242,29.6562c2.7173,1.4843,2.4517.7758,4.6833,1.8952,1.9178.9618,2.7145,2.8167,3.4635,4.4023a6.6229,6.6229,0,0,1-5.127-1.9125A11.9913,11.9913,0,0,1,97.242,29.6562Z"></path><path class="cls-5" d="M109.7,24.5236c-1.4522,3.3356-1.8979,2.2945-3.3322,4.5162-1.2319,1.9092-1.3288,5.2715-.9778,7.5631,3.0028-1.0193,3.9506-4.0955,4.1938-5.08C110.0575,29.6,110.19,25.8845,109.7,24.5236Z"></path><path class="cls-5" d="M94.8535,23.5221c2.6107,1.1514,2.3183.52,4.4563,1.375,1.8367.7331,2.6963,2.378,3.4932,3.778A6.0792,6.0792,0,0,1,97.9369,27.32,10.8608,10.8608,0,0,1,94.8535,23.5221Z"></path><path class="cls-5" d="M104.88,16.831c-.6975,3.34-1.2854,2.4817-2.1678,4.8015-.7577,1.9942-.2358,5.0817.4935,7.1,2.5051-1.5443,2.7968-4.5446,2.8368-5.493A16.2236,16.2236,0,0,0,104.88,16.831Z"></path><path class="cls-5" d="M91.568,18.0059c2.5781.7858,2.2523.2113,4.3562.7685,1.808.4784,2.7505,1.963,3.6148,3.2183a5.5758,5.5758,0,0,1-4.748-.6978A9.72,9.72,0,0,1,91.568,18.0059Z"></path><path class="cls-5" d="M99.6067,10.8132c-.11,3.1149-.7041,2.3989-1.1032,4.6064-.3429,1.8979.5,4.6483,1.3661,6.4042,1.82-1.6811,1.6485-4.4423,1.5514-5.3093A16.6773,16.6773,0,0,0,99.6067,10.8132Z"></path><path class="cls-5" d="M87.4132,13.7376c2.5541.2195,2.1552-.2675,4.2266-.17,1.7791.0834,2.9033,1.32,3.9178,2.351a5.1756,5.1756,0,0,1-4.5828.32A8.72,8.72,0,0,1,87.4132,13.7376Z"></path><path class="cls-5" d="M94.3488,6.0663c.1964,2.7882-.4182,2.2309-.5747,4.25a10.1947,10.1947,0,0,0,1.8694,5.5161c1.5147-1.7418,1.0919-4.1777.9207-4.935A14.07,14.07,0,0,0,94.3488,6.0663Z"></path><path class="cls-5" d="M83.8927,10.4952c2.2-.03,1.8037-.3621,3.5785-.4462a5.7132,5.7132,0,0,1,3.6117,1.4572,4.9342,4.9342,0,0,1-3.8645.5853A8.2127,8.2127,0,0,1,83.8927,10.4952Z"></path><path class="cls-5" d="M88.9126,3.0123c.4862,2.4187-.15,2.0557-.0778,3.8694a7.8941,7.8941,0,0,0,2.3483,4.4758A5.0643,5.0643,0,0,0,91.51,6.81,10.7727,10.7727,0,0,0,88.9126,3.0123Z"></path><path class="cls-5" d="M80.7728,8.3593c1.7382-.3476,1.405-.62,2.8033-.9593a3.6545,3.6545,0,0,1,2.9461.9215A3.4929,3.4929,0,0,1,83.5016,9.46,5.3013,5.3013,0,0,1,80.7728,8.3593Z"></path><path class="cls-5" d="M82.7279,1.2434c.9617,1.978.3675,1.7367.8552,3.2487A8.4222,8.4222,0,0,0,86.52,8.0089a4.6951,4.6951,0,0,0-.8169-3.8411A11.5456,11.5456,0,0,0,82.7279,1.2434Z"></path><path class="cls-5" d="M76.4312,5.4974c1.659-.1958,1.3734-.4781,2.7137-.6923a3.339,3.339,0,0,1,2.6621,1.0924,3.3146,3.3146,0,0,1-2.9353.8445A4.8194,4.8194,0,0,1,76.4312,5.4974Z"></path><path class="cls-5" d="M77.2724,0c1.161,1.736.5476,1.6629,1.19,3.0617A6.5969,6.5969,0,0,0,81.74,5.792a4.3067,4.3067,0,0,0-1.2158-3.6761A8.981,8.981,0,0,0,77.2724,0Z"></path><path class="cls-5" d="M73.1794,2.101c1.2555.6268.8618.8052,1.6968,1.4164a4.2708,4.2708,0,0,0,2.8509.4589,2.7527,2.7527,0,0,0-1.9086-1.7782A5.907,5.907,0,0,0,73.1794,2.101Z"></path><path class="cls-5" d="M65.9995,88.5342c2.212-1.9863,15.3538-7.7927,15.515-7.8493,18.049-6.3694,27.9582-29.462,22.1915-48.4659C99.67,18.918,92.4318,10.4321,81.6836,5.8846l-.178-.6488c10.756,4.3814,19.6567,14.1363,23.2254,27.1506,5.8091,21.1832-4.6363,43.16-23.4187,49.4988a95.368,95.368,0,0,0-9.33,4.6142c-1.227.8385-4.4369,2.8011-5.6086,3.7265C65.7837,90.6922,65.0381,89.3974,65.9995,88.5342Z"></path><path class="cls-6" d="M40.9864,21.1307a16.45,16.45,0,0,1,2.8621-.2236,5.1065,5.1065,0,0,1,3.0855.6873,2.2727,2.2727,0,0,1,1.1193,2.0146,2.5064,2.5064,0,0,1-1.7908,2.3341v.032a2.717,2.717,0,0,1,2.1747,2.67,2.7958,2.7958,0,0,1-1.0394,2.2223c-.7675.6715-2.03,1.0075-3.997,1.0075a19.0349,19.0349,0,0,1-2.4143-.1439Zm1.9505,4.2528h1.0072c1.3591,0,2.1266-.6393,2.1266-1.5509,0-1.0072-.7675-1.4709-2.0146-1.4709a5.3278,5.3278,0,0,0-1.1192.08Zm0,4.9565a8.7016,8.7016,0,0,0,1.0391.0482c1.2635,0,2.3824-.48,2.3824-1.8069,0-1.2474-1.0871-1.7589-2.4463-1.7589h-.9753Z"></path><path class="cls-6" d="M56.2224,26.9823H52.1613v3.166h4.5408V31.763H50.195V20.9868h6.2671v1.6149H52.1613v2.7818h4.0611Z"></path><path class="cls-6" d="M58.38,29.6205a5.4437,5.4437,0,0,0,2.606.6876c1.2629,0,1.9663-.5916,1.9663-1.4709,0-.8155-.5434-1.2951-1.9183-1.7907-1.7749-.64-2.91-1.5827-2.91-3.1336,0-1.7586,1.4712-3.1016,3.8051-3.1016a5.686,5.686,0,0,1,2.59.5436l-.48,1.5825a4.5623,4.5623,0,0,0-2.1425-.5115c-1.2471,0-1.7905.6716-1.7905,1.2951,0,.8313.6236,1.2152,2.0624,1.7747,1.8706.7034,2.7821,1.6468,2.7821,3.1979,0,1.7267-1.3111,3.2293-4.093,3.2293a6.401,6.401,0,0,1-2.91-.6713Z"></path><path class="cls-6" d="M68.7876,22.6336H65.7182V20.9868H73.856v1.6468H70.7541V31.763H68.7876Z"></path><path class="cls-6" d="M24.4412,40.3153a19.8468,19.8468,0,0,1,3.1336-.2239,6.5612,6.5612,0,0,1,4.3967,1.2469A4.8206,4.8206,0,0,1,33.65,45.3037a5.5785,5.5785,0,0,1-1.6787,4.2848,7.1958,7.1958,0,0,1-4.8764,1.4707,21.4193,21.4193,0,0,1-2.654-.1439Zm1.9666,9.1292a7.3211,7.3211,0,0,0,1.0871.048c2.5583.0161,4.0767-1.3911,4.0767-4.1252.0163-2.3821-1.3587-3.7411-3.8212-3.7411a6.2978,6.2978,0,0,0-1.3426.1118Z"></path><path class="cls-6" d="M37.3267,40.1714V50.9473H35.36V40.1714Z"></path><path class="cls-6" d="M39.5805,40.3153a18.6384,18.6384,0,0,1,2.9738-.2239,4.9926,4.9926,0,0,1,3.3256.8632,2.727,2.727,0,0,1,.9272,2.1583,2.8736,2.8736,0,0,1-1.95,2.702v.0482A2.7428,2.7428,0,0,1,46.36,47.9416a21.4914,21.4914,0,0,0,.8474,3.0057H45.1764a15.2593,15.2593,0,0,1-.72-2.5422c-.3037-1.4069-.8155-1.8546-1.9344-1.8867h-.9914v4.4289H39.5805ZM41.5311,45.08h1.1673c1.3269,0,2.1586-.7035,2.1586-1.7747,0-1.1833-.8317-1.7267-2.1106-1.7267a5.6556,5.6556,0,0,0-1.2152.096Z"></path><path class="cls-6" d="M54.7045,46.167H50.6437v3.1657h4.5407v1.6146H48.6771V40.1714h6.2674V41.786H50.6437v2.7819h4.0608Z"></path><path class="cls-6" d="M64.6326,50.6275a6.8091,6.8091,0,0,1-2.7819.48c-3.4218,0-5.5-2.1425-5.5-5.42a5.42,5.42,0,0,1,5.7559-5.6918,6.1873,6.1873,0,0,1,2.6218.48l-.4316,1.5667a5.2348,5.2348,0,0,0-2.11-.4155c-2.19,0-3.7734,1.375-3.7734,3.9652a3.5376,3.5376,0,0,0,3.7576,3.885,5.5041,5.5041,0,0,0,2.1423-.4Z"></path><path class="cls-6" d="M68.6925,41.8179h-3.07V40.1714h8.1378v1.6465H70.6594v9.1294H68.6925Z"></path><path class="cls-6" d="M84.1368,45.4474c0,3.6133-2.1907,5.6758-5.1646,5.6758-3.0379,0-4.9562-2.3184-4.9562-5.4838,0-3.31,2.0785-5.6441,5.116-5.6441C82.282,39.9953,84.1368,42.3777,84.1368,45.4474Zm-8.0423.16c0,2.19,1.1031,3.9332,2.99,3.9332,1.9023,0,2.9739-1.7589,2.9739-4.0132,0-2.03-1.0075-3.9491-2.9739-3.9491C77.1335,41.5782,76.0945,43.3846,76.0945,45.6072Z"></path><path class="cls-6" d="M85.83,40.3153a18.638,18.638,0,0,1,2.9737-.2239,4.9942,4.9942,0,0,1,3.3258.8632,2.7276,2.7276,0,0,1,.927,2.1583,2.874,2.874,0,0,1-1.95,2.702v.0482a2.7427,2.7427,0,0,1,1.5028,2.0784,21.5,21.5,0,0,0,.8474,3.0057H91.4262a15.2285,15.2285,0,0,1-.7194-2.5422c-.3038-1.4069-.8153-1.8546-1.9345-1.8867h-.9914v4.4289H85.83Zm1.95,4.7643h1.1675c1.327,0,2.1583-.7035,2.1583-1.7747,0-1.1833-.8313-1.7267-2.1108-1.7267a5.6533,5.6533,0,0,0-1.215.096Z"></path><polygon class="cls-6" points="56.702 3.476 58.654 7.431 63.019 8.066 59.86 11.144 60.606 15.491 56.702 13.439 52.798 15.491 53.544 11.144 50.386 8.066 54.75 7.431 56.702 3.476"></polygon><path class="cls-7" d="M40.1908,59.5354a2.0509,2.0509,0,0,1,.8253.7955,2.3191,2.3191,0,0,1,.2961,1.18,2.359,2.359,0,0,1-.2961,1.1921,2.04,2.04,0,0,1-.8253.8,2.5483,2.5483,0,0,1-1.2208.2839,2.5912,2.5912,0,0,1-1.2341-.2839,2.0329,2.0329,0,0,1-.8292-.8,2.3534,2.3534,0,0,1-.2961-1.1921,2.3136,2.3136,0,0,1,.2961-1.18,2.0436,2.0436,0,0,1,.8292-.7955,2.5912,2.5912,0,0,1,1.2341-.2839A2.5483,2.5483,0,0,1,40.1908,59.5354ZM38.053,60.5518a1.5338,1.5338,0,0,0,0,1.9511,1.1959,1.1959,0,0,0,.917.3745,1.1758,1.1758,0,0,0,.9-.3745,1.5338,1.5338,0,0,0,0-1.9511,1.1758,1.1758,0,0,0-.9-.3745A1.1959,1.1959,0,0,0,38.053,60.5518Z"></path><path class="cls-7" d="M43.65,58.5842a.5338.5338,0,0,0-.163.4253v.4585h1.117V60.26h-1.117v3.4845H42.4043V60.26H41.82V59.468h.5839v-.4253a1.5463,1.5463,0,0,1,.2165-.8374,1.3689,1.3689,0,0,1,.5795-.52,1.7817,1.7817,0,0,1,.7877-.1757,1.8682,1.8682,0,0,1,.817.1922l-.1917.875a1.5487,1.5487,0,0,0-.55-.1337A.6075.6075,0,0,0,43.65,58.5842Z"></path><path class="cls-7" d="M49.8981,63.47a2.1168,2.1168,0,0,1-1.117.3248,1.34,1.34,0,0,1-.9424-.337,1.2906,1.2906,0,0,1-.3668-.9965V60.26h-.6248l-.0088-.7921h.6336V58.2428h1.0755V59.468H49.823V60.26H48.5475v2.0085a.6509.6509,0,0,0,.1166.4386.4481.4481,0,0,0,.35.1293,1.5652,1.5652,0,0,0,.6336-.1834Z"></path><path class="cls-7" d="M54.6913,59.7056a1.7424,1.7424,0,0,1,.4419,1.2551v2.7841H54.0411v-2.467a1.0049,1.0049,0,0,0-.2668-.738.9687.9687,0,0,0-.7253-.2707,1.1087,1.1087,0,0,0-.8584.3668,1.3336,1.3336,0,0,0-.3165.917v2.1919H50.79V57.5589h1.0838v2.5764a1.6893,1.6893,0,0,1,1.6086-.8916A1.5916,1.5916,0,0,1,54.6913,59.7056Z"></path><path class="cls-7" d="M59.8143,59.86a2.498,2.498,0,0,1,.5375,1.7091q0,.2171-.0083.3248H57.0506a1.2414,1.2414,0,0,0,1.2755,1.0164,1.6937,1.6937,0,0,0,.654-.1282,1.5989,1.5989,0,0,0,.5463-.3712l.5833.6087a2.2644,2.2644,0,0,1-.8126.5668,2.75,2.75,0,0,1-1.0628.2,2.4827,2.4827,0,0,1-1.2048-.2839,1.9811,1.9811,0,0,1-.8043-.7955,2.5871,2.5871,0,0,1,.0044-2.3632,2.04,2.04,0,0,1,.8043-.8054,2.3813,2.3813,0,0,1,1.1755-.2872A2.0307,2.0307,0,0,1,59.8143,59.86ZM59.36,61.1683a1.0818,1.0818,0,0,0-.3248-.7833,1.269,1.269,0,0,0-1.6136-.0044,1.2728,1.2728,0,0,0-.3955.7877Z"></path><path class="cls-7" d="M64.6395,65.1323a1.53,1.53,0,0,1-.92.28,1.6948,1.6948,0,0,1-.5878-.0961,1.8326,1.8326,0,0,1-.5215-.3038l.4673-.8253a1.3879,1.3879,0,0,0,.2917.1712.7579.7579,0,0,0,.2828.0541.6843.6843,0,0,0,.6507-.4508l.1326-.2917-1.8417-4.385h1.1258l1.2661,3.2426,1.1578-3.2426h1.0938l-2.0008,5.0191A1.7471,1.7471,0,0,1,64.6395,65.1323Z"></path><path class="cls-7" d="M71.1666,59.86a2.4926,2.4926,0,0,1,.538,1.7091c0,.1447-.0033.253-.0088.3248H68.4035a1.2425,1.2425,0,0,0,1.2749,1.0164,1.6972,1.6972,0,0,0,.6551-.1282,1.6073,1.6073,0,0,0,.5458-.3712l.5833.6087a2.2569,2.2569,0,0,1-.8131.5668,2.7476,2.7476,0,0,1-1.0628.2,2.48,2.48,0,0,1-1.2042-.2839,1.9844,1.9844,0,0,1-.8043-.7955,2.5827,2.5827,0,0,1,.0044-2.3632,2.0362,2.0362,0,0,1,.8043-.8054,2.3813,2.3813,0,0,1,1.1755-.2872A2.0279,2.0279,0,0,1,71.1666,59.86Zm-.4541,1.3081a1.0818,1.0818,0,0,0-.3248-.7833,1.2682,1.2682,0,0,0-1.613-.0044,1.2767,1.2767,0,0,0-.3966.7877Z"></path><path class="cls-7" d="M75.2721,63.7447v-.5414a1.4428,1.4428,0,0,1-.6.4408,2.1968,2.1968,0,0,1-.8419.15,1.7963,1.7963,0,0,1-.8209-.179,1.3081,1.3081,0,0,1-.5458-.4961,1.3383,1.3383,0,0,1-.1922-.7082,1.1852,1.1852,0,0,1,.4419-.98,1.9871,1.9871,0,0,1,1.2506-.3624h1.3v-.1171a.748.748,0,0,0-.2585-.6076,1.1376,1.1376,0,0,0-.75-.2176,2.5765,2.5765,0,0,0-1.3258.4176l-.3911-.75a4.9238,4.9238,0,0,1,.9545-.422,3.5375,3.5375,0,0,1,1.0043-.1282,1.982,1.982,0,0,1,1.3456.4165,1.4832,1.4832,0,0,1,.4883,1.1667l.0077,2.9178ZM74.8887,62.74a.7648.7648,0,0,0,.3756-.5458v-.401H74.1386a1.2229,1.2229,0,0,0-.6375.1293.4609.4609,0,0,0-.2044.4209.5422.5422,0,0,0,.2132.4508.9112.9112,0,0,0,.5789.1668A1.4159,1.4159,0,0,0,74.8887,62.74Z"></path><path class="cls-7" d="M79.2527,59.4813a1.7917,1.7917,0,0,1,.9037-.2375v1.05a1.47,1.47,0,0,0-1.1037.3215,1.2375,1.2375,0,0,0-.4132.9789v2.151H77.5557v-4.46H78.64v.8584A1.6109,1.6109,0,0,1,79.2527,59.4813Z"></path></svg>