<svg xmlns="http://www.w3.org/2000/svg" viewBox="0 0 108.1159 36" style="enable-background:new 0 0 100 84; stroke: transparent;" xml:space="preserve">
<defs>
<style>.cls-14{fill:#fff;}</style>
</defs>
<title>movie1-tree-logo</title>

<path class="cls-14" d="M8.4706,13.8943a10.0119,10.0119,0,0,1-1.3247,3.998c.9386.5677,1.9059,1.0816,2.8447,1.58,2.8178,1.4967,5.3979,2.8677,6.4746,5.182a24.32,24.32,0,0,0-1.7087-6.8557c-.9656-2.2516-2.8-3.9919-4.7327-5.8249-.4874-.4623-.9807-.93-1.4694-1.4139a15.4192,15.4192,0,0,1-.0838,3.3343M19.16,35.2986l-.0074-.0462c-.1516.0084-2.6944-.03-2.7533-.0363l.02-.1979q-.0881.2233-.1862.4395l-1.3-.5858a11.526,11.526,0,0,0,.901-4.014,17.3108,17.3108,0,0,0-.3823-4.7938,5.789,5.789,0,0,0-2.6179-3.2951,12.1508,12.1508,0,0,1-6.2519,1.9305A9.7125,9.7125,0,0,1,.279,22.7057l.87-1.1269a8.3194,8.3194,0,0,0,5.3992,1.6979,10.847,10.847,0,0,0,4.95-1.3516c-.6862-.4-1.4223-.791-2.1772-1.1918C5.6936,18.8065,1.6656,16.6669.0419,12.117l1.3443-.48A11.3219,11.3219,0,0,0,5.95,17.1236a8.37,8.37,0,0,0,1.1088-3.4188,14.0723,14.0723,0,0,0-.22-4.9645A16.659,16.659,0,0,1,2.9167.9848L4.3115.7c1.0011,4.8419,3.947,7.6364,6.6941,10.2418.6254.5931,1.2407,1.1771,1.8249,1.7741a20.107,20.107,0,0,0-.3257-5.9093A14.1722,14.1722,0,0,0,9.8648.8814L10.9805,0A15.5817,15.5817,0,0,1,13.9,6.5169a21.1274,21.1274,0,0,1,.1819,7.5727,12.7621,12.7621,0,0,1,1.9859,3.1514,25.58,25.58,0,0,1,1.7956,7.0937q.01-.1764.02-.35a31.6063,31.6063,0,0,1,1.1982-7.426c.4677-4.34-.5275-6.194-1.47-7.9482A10.5169,10.5169,0,0,1,16.27.7337l1.4057.2177a9.3273,9.3273,0,0,0,1.1909,6.9842,12.2873,12.2873,0,0,1,1.6605,4.7269c1.36-3.5517,2.7388-7.77,1.2269-11.71L23.0816.4446a13.0249,13.0249,0,0,1,.4453,7.3035A18.7184,18.7184,0,0,0,27.3642,4.95a10.9823,10.9823,0,0,0,3.2-4.2888l1.3778.3625c-.4112,1.5449-1.9,3.3975-3.6132,4.9749A16.8061,16.8061,0,0,1,23.1211,9.451a49.51,49.51,0,0,1-1.65,4.7168c-.3785.9722-.7334,1.8836-1.0062,2.7427h-.0028a30.03,30.03,0,0,0-1.1558,7.1578q-.0491.8025-.0782,1.6671a9.3839,9.3839,0,0,1,.3972-1.3021l-.0978-.0393c1.3534-3.3185,2.6307-6.3111,4.916-8.79q.3624-.3928.7582-.7664a47.0549,47.0549,0,0,0,5.8338-7.0035,12.5645,12.5645,0,0,0,2.34-6.9753L34.7978.8259a13.911,13.911,0,0,1-2.5631,7.7782A32.8571,32.8571,0,0,1,29.898,11.773,26.75,26.75,0,0,1,35.3045,10.09l.29,1.3945c-4.963,1.0366-7.9975,2.8018-10.1026,5.0847A19.3938,19.3938,0,0,0,22.27,21.62a17.4067,17.4067,0,0,1,4.5482-1.7887c2.6-.7468,5.3077-1.5251,7.7735-4.7349l1.1327.8647a13.0009,13.0009,0,0,1-6.7942,4.725,15.0752,15.0752,0,0,1,2.1749.7164,22.7723,22.7723,0,0,1,4.4656,2.56l-.8256,1.16a21.409,21.409,0,0,0-4.1811-2.4036,12.6043,12.6043,0,0,0-5.05-1.0021,9.86,9.86,0,0,0-4.0575,2.36l-.0015-.0015c-.5937.601-.98,2.1155-1.1571,4.0058a28.6632,28.6632,0,0,0,.2685,6.9883Z"></path><path class="cls-14" d="M34.4433,1.5567H1.4282V34.5718H34.4433ZM.7141.1283H35.8718V36H0V.1283Z"></path><path class="cls-14" d="M100.8141,10.9848H103.04a3.29,3.29,0,0,1,3.4694,3.4188A3.3015,3.3015,0,0,1,103.04,18.01h-2.2262ZM99.21,9.4381V19.5713H103.04a4.8,4.8,0,0,0,5.074-5.1532,4.8022,4.8022,0,0,0-5.074-4.98Zm-12.9869,0H84.98V19.5713H86.613V12.4207l5.7387,7.1506H93.58V9.4381H91.9616v7.2085ZM77.211,15.9718h-4.279l2.1394-4.8233Zm1.5609,3.5994h1.72L75.9534,9.4381H74.19L69.6506,19.5713h1.72l.9541-2.1248h5.4786ZM61.9976,10.927A1.8017,1.8017,0,0,1,63.92,12.7918a1.743,1.743,0,0,1-1.937,1.8068H58.9042V10.927Zm3.8453,8.3552-3.0213-3.3681a2.9865,2.9865,0,0,0,2.7467-3.1514,3.299,3.299,0,0,0-3.5708-3.31c-1.5754,0-3.1366-.0144-4.7122-.0144V19.5713h1.6188V16.0732h2.14l3.079,3.4981h1.8937ZM43.85,9.4381V19.5713h4.64c1.9948,0,3.7584-.6794,3.7584-2.891a2.5022,2.5022,0,0,0-1.72-2.3273,2.108,2.108,0,0,0,1.4022-2.0166c0-2.0164-1.5178-2.8983-3.44-2.8983Zm1.6044,1.46H48.49c1.2142,0,1.8358.7539,1.8358,1.4672,0,.8-.6071,1.2792-1.8214,1.2792h-3.05Zm0,4.192h3.05c.9252,0,2.1249.4915,2.1249,1.5757,0,1.1131-1.2432,1.4022-2.1393,1.4022H45.4547Z"></path><path class="cls-14" d="M78.8832,23.6122h-.4558v3.7152h.5991V24.7058l2.104,2.6217h.45V23.6122h-.5937v2.643ZM73.6,26.0078H72.0313l.7844-1.7684Zm.5723,1.32h.6308l-1.6644-3.7152h-.6465l-1.6641,3.7152h.6308l.35-.7791h2.0085Zm-6.8041-3.2382a1.9514,1.9514,0,0,0-1.3727-.5616,1.8674,1.8674,0,0,0-1.95,1.9821,1.7905,1.7905,0,0,0,1.95,1.8919,1.867,1.867,0,0,0,1.4573-.6465V25.2341H65.8683v.53h1.0336v.7527a1.3263,1.3263,0,0,1-.9063.3284A1.2629,1.2629,0,0,1,64.6282,25.51a1.3363,1.3363,0,0,1,1.3674-1.4362,1.48,1.48,0,0,1,1.0016.3972Zm-10.1165,1.41a1.274,1.274,0,0,1,1.32-1.41,1.3025,1.3025,0,0,1,1.2986,1.41,1.2435,1.2435,0,0,1-1.3092,1.362A1.2781,1.2781,0,0,1,57.2518,25.4991Zm1.32-1.95a1.8553,1.8553,0,0,0-1.9079,1.945,1.8979,1.8979,0,1,0,1.9079-1.945Zm-7.8111.0635v3.7152H53.31v-.5512H51.3539v-3.164Zm-3.942.5248a1.5106,1.5106,0,0,0-1.3834-.6254c-.6678,0-1.4362.2967-1.4308,1.0654,0,.7948.7.98,1.4362,1.0811.5195.0688.9487.2067.9487.6094,0,.4664-.493.6147-.9381.6147a1.2848,1.2848,0,0,1-1.1556-.6094l-.445.2967a1.63,1.63,0,0,0,1.5952.8428c.7738,0,1.5317-.3127,1.5368-1.1449,0-.8319-.726-1.044-1.4891-1.15-.4877-.0691-.901-.17-.901-.53,0-.3551.36-.5616.8586-.5616a1.1273,1.1273,0,0,1,.9167.4133Z"></path></svg>