<svg xmlns="http://www.w3.org/2000/svg" viewBox="0 0 110.8985 20.0025" style="enable-background:new 0 0 100 84; stroke: transparent;" xml:space="preserve">

<path d="M20.52,8.8325,16.3906,12.856l.9766,5.6836a1.25,1.25,0,0,1-1.8125,1.3164l-5.1055-2.6836L5.3438,19.856A1.2493,1.2493,0,0,1,3.5313,18.54l.9766-5.6836L.3789,8.8325A1.2506,1.2506,0,0,1,1.07,6.7l5.707-.832L9.3281.6958a1.2511,1.2511,0,0,1,2.2422,0l2.5508,5.1719,5.707.832A1.2506,1.2506,0,0,1,20.52,8.8325Zm-2.2109-.4609-5.43-.7891-2.43-4.9219L8.02,7.5825l-5.43.7891L6.52,12.2,5.5938,17.606l4.8555-2.5508,4.8555,2.5508L14.3789,12.2Z"></path>

<path d="M43.02,8.8325,38.8906,12.856l.9766,5.6836a1.25,1.25,0,0,1-1.8125,1.3164l-5.1055-2.6836L27.8438,19.856A1.2493,1.2493,0,0,1,26.0313,18.54l.9766-5.6836L22.8789,8.8325A1.2506,1.2506,0,0,1,23.57,6.7l5.707-.832L31.8281.6958a1.2511,1.2511,0,0,1,2.2422,0l2.5508,5.1719,5.707.832A1.2506,1.2506,0,0,1,43.02,8.8325Zm-2.2109-.4609-5.43-.7891-2.43-4.9219L30.52,7.5825l-5.43.7891L29.02,12.2l-.9258,5.4063,4.8555-2.5508,4.8555,2.5508L36.8789,12.2Z"></path>

<path d="M65.52,8.8325,61.3906,12.856l.9766,5.6836a1.25,1.25,0,0,1-1.8125,1.3164l-5.1055-2.6836L50.3438,19.856A1.2493,1.2493,0,0,1,48.5313,18.54l.9766-5.6836L45.3789,8.8325A1.2506,1.2506,0,0,1,46.07,6.7l5.707-.832L54.3281.6958a1.2511,1.2511,0,0,1,2.2422,0l2.5508,5.1719,5.707.832A1.2506,1.2506,0,0,1,65.52,8.8325Zm-2.2109-.4609-5.43-.7891-2.43-4.9219L53.02,7.5825l-5.43.7891L51.52,12.2l-.9258,5.4063,4.8555-2.5508,4.8555,2.5508L59.3789,12.2Z"></path>

<path d="M88.02,8.8325,83.8906,12.856l.9766,5.6836a1.25,1.25,0,0,1-1.8125,1.3164l-5.1055-2.6836L72.8438,19.856A1.2493,1.2493,0,0,1,71.0313,18.54l.9766-5.6836L67.8789,8.8325A1.2506,1.2506,0,0,1,68.57,6.7l5.707-.832L76.8281.6958a1.2511,1.2511,0,0,1,2.2422,0l2.5508,5.1719,5.707.832A1.2506,1.2506,0,0,1,88.02,8.8325Zm-2.2109-.4609-5.43-.7891-2.43-4.9219L75.52,7.5825l-5.43.7891L74.02,12.2l-.9258,5.4063,4.8555-2.5508,4.8555,2.5508L81.8789,12.2Z"></path>

<path d="M110.52,8.8325l-4.1289,4.0234.9766,5.6836a1.25,1.25,0,0,1-1.8125,1.3164l-5.1055-2.6836L95.3438,19.856A1.2493,1.2493,0,0,1,93.5313,18.54l.9766-5.6836L90.3789,8.8325A1.2506,1.2506,0,0,1,91.07,6.7l5.707-.832L99.3281.6958a1.2511,1.2511,0,0,1,2.2422,0l2.5508,5.1719,5.707.832A1.2506,1.2506,0,0,1,110.52,8.8325Zm-2.2109-.4609-5.43-.7891-2.43-4.9219L98.02,7.5825l-5.43.7891L96.52,12.2l-.9258,5.4063,4.8555-2.5508,4.8555,2.5508L104.3789,12.2Z"></path>
</svg>